<?xml version="1.0" standalone="no"?>
<!DOCTYPE svg PUBLIC "-//W3C//DTD SVG 1.1//EN" "http://www.w3.org/Graphics/SVG/1.1/DTD/svg11.dtd" >
<!--
2013-9-30: Created.
-->
<svg>
<metadata>
Created by iconfont
</metadata>
<defs>

<font id="iconfont" horiz-adv-x="1024" >
  <font-face
    font-family="iconfont"
    font-weight="500"
    font-stretch="normal"
    units-per-em="1024"
    ascent="896"
    descent="-128"
  />
    <missing-glyph />
    
    <glyph glyph-name="__arrow_up" unicode="&#58881;" d="M665.6 320c-2.56 0-7.68 0-10.24 2.56L537.6 440.32c-15.36 15.36-38.4 15.36-53.76 0l-117.76-117.76c-5.12-5.12-12.8-5.12-17.92 0s-5.12 12.8 0 17.92l117.76 117.76c23.04 23.04 66.56 23.04 89.6 0l117.76-117.76c5.12-5.12 5.12-12.8 0-17.92 0-2.56-5.12-2.56-7.68-2.56z"  horiz-adv-x="1024" />

    
    <glyph glyph-name="__minus" unicode="&#58882;" d="M665.6 371.2H358.4c-7.68 0-12.8 5.12-12.8 12.8s5.12 12.8 12.8 12.8h307.2c7.68 0 12.8-5.12 12.8-12.8s-5.12-12.8-12.8-12.8z"  horiz-adv-x="1024" />

    
    <glyph glyph-name="__arrow_down" unicode="&#58883;" d="M512 289.28c-17.92 0-33.28 7.68-46.08 17.92l-117.76 117.76c-5.12 5.12-5.12 12.8 0 17.92s12.8 5.12 17.92 0l117.76-117.76c15.36-15.36 38.4-15.36 53.76 0l117.76 117.76c5.12 5.12 12.8 5.12 17.92 0s5.12-12.8 0-17.92L555.52 307.2c-10.24-10.24-25.6-17.92-43.52-17.92z"  horiz-adv-x="1024" />

    
    <glyph glyph-name="__plus" unicode="&#58884;" d="M665.6 371.2H358.4c-7.68 0-12.8 5.12-12.8 12.8s5.12 12.8 12.8 12.8h307.2c7.68 0 12.8-5.12 12.8-12.8s-5.12-12.8-12.8-12.8zM512 217.6c-7.68 0-12.8 5.12-12.8 12.8V537.6c0 7.68 5.12 12.8 12.8 12.8s12.8-5.12 12.8-12.8v-307.2c0-7.68-5.12-12.8-12.8-12.8z"  horiz-adv-x="1024" />

    
    <glyph glyph-name="__arrow_right" unicode="&#58885;" d="M460.8 217.6c-2.56 0-7.68 0-10.24 2.56-5.12 5.12-5.12 12.8 0 17.92l117.76 117.76c15.36 15.36 15.36 38.4 0 53.76l-117.76 117.76c-5.12 5.12-5.12 12.8 0 17.92s12.8 5.12 17.92 0l117.76-117.76c12.8-12.8 17.92-28.16 17.92-46.08s-7.68-33.28-17.92-46.08l-117.76-117.76H460.8z"  horiz-adv-x="1024" />

    
    <glyph glyph-name="__choose" unicode="&#58886;" d="M488.96 263.68c-17.92 0-33.28 7.68-46.08 17.92l-69.12 69.12c-5.12 5.12-5.12 12.8 0 17.92s12.8 5.12 17.92 0l69.12-69.12c7.68-7.68 17.92-10.24 28.16-10.24 10.24 0 20.48 5.12 28.16 10.24l163.84 168.96c5.12 5.12 12.8 5.12 17.92 0 5.12-5.12 5.12-12.8 0-17.92L535.04 281.6c-10.24-10.24-28.16-17.92-46.08-17.92z"  horiz-adv-x="1024" />

    
    <glyph glyph-name="__close" unicode="&#58887;" d="M640 243.2c-2.56 0-7.68 0-10.24 2.56l-256 256c-5.12 5.12-5.12 12.8 0 17.92s12.8 5.12 17.92 0l256-256c5.12-5.12 5.12-12.8 0-17.92 0-2.56-5.12-2.56-7.68-2.56zM384 243.2c-2.56 0-7.68 0-10.24 2.56-5.12 5.12-5.12 12.8 0 17.92l256 256c5.12 5.12 12.8 5.12 17.92 0s5.12-12.8 0-17.92l-256-256c0-2.56-5.12-2.56-7.68-2.56z"  horiz-adv-x="1024" />

    
    <glyph glyph-name="__arrow_lockwise" unicode="&#58888;" d="M665.6 384c0 84.48-69.12 153.6-153.6 153.6s-153.6-69.12-153.6-153.6 69.12-153.6 153.6-153.6c7.68 0 12.8-5.12 12.8-12.8s-5.12-12.8-12.8-12.8c-99.84 0-179.2 79.36-179.2 179.2s79.36 179.2 179.2 179.2 179.2-79.36 179.2-179.2h-25.6zM678.4 371.2c-2.56 0-5.12 0-7.68 2.56l-79.36 48.64c-5.12 2.56-7.68 10.24-5.12 17.92 2.56 5.12 10.24 7.68 17.92 5.12l69.12-40.96 40.96 69.12c2.56 5.12 12.8 7.68 17.92 5.12 5.12-2.56 7.68-10.24 5.12-17.92l-48.64-79.36c-2.56-2.56-5.12-5.12-7.68-5.12 0-5.12-2.56-5.12-2.56-5.12z"  horiz-adv-x="1024" />

    
    <glyph glyph-name="__arrow_anti-cloc" unicode="&#58889;" d="M332.8 384c0 99.84 79.36 179.2 179.2 179.2s179.2-79.36 179.2-179.2-79.36-179.2-179.2-179.2c-7.68 0-12.8 5.12-12.8 12.8s5.12 12.8 12.8 12.8c84.48 0 153.6 69.12 153.6 153.6s-69.12 153.6-153.6 153.6-153.6-69.12-153.6-153.6h-25.6zM345.6 371.2h-2.56c-2.56 0-5.12 2.56-7.68 5.12l-48.64 79.36c-2.56 5.12-2.56 12.8 5.12 17.92 5.12 2.56 12.8 2.56 17.92-5.12l40.96-69.12 69.12 40.96c5.12 2.56 12.8 2.56 17.92-5.12 2.56-5.12 2.56-12.8-5.12-17.92l-79.36-48.64c-2.56 2.56-5.12 2.56-7.68 2.56z"  horiz-adv-x="1024" />

    
    <glyph glyph-name="__circle_arrow_le" unicode="&#58890;" d="M512 166.4c-120.32 0-217.6 97.28-217.6 217.6s97.28 217.6 217.6 217.6 217.6-97.28 217.6-217.6-97.28-217.6-217.6-217.6z m0 409.6c-104.96 0-192-87.04-192-192s87.04-192 192-192 192 87.04 192 192-87.04 192-192 192zM527.36 307.2c-2.56 0-7.68 0-10.24 2.56L468.48 358.4c-12.8 12.8-12.8 35.84 0 48.64l48.64 48.64c5.12 5.12 12.8 5.12 17.92 0s5.12-12.8 0-17.92L486.4 389.12c-2.56-2.56-2.56-7.68 0-12.8l48.64-48.64c5.12-5.12 5.12-12.8 0-17.92-2.56-2.56-5.12-2.56-7.68-2.56z"  horiz-adv-x="1024" />

    
    <glyph glyph-name="__circle_arrow_ri" unicode="&#58891;" d="M512 166.4c-120.32 0-217.6 97.28-217.6 217.6s97.28 217.6 217.6 217.6 217.6-97.28 217.6-217.6-97.28-217.6-217.6-217.6z m0 409.6c-104.96 0-192-87.04-192-192s87.04-192 192-192 192 87.04 192 192-87.04 192-192 192zM496.64 307.2c-2.56 0-7.68 0-10.24 2.56-5.12 5.12-5.12 12.8 0 17.92l48.64 48.64c2.56 2.56 2.56 7.68 0 12.8L486.4 437.76c-5.12 5.12-5.12 12.8 0 17.92s12.8 5.12 17.92 0l48.64-48.64c12.8-12.8 12.8-35.84 0-48.64l-48.64-48.64c0-2.56-2.56-2.56-7.68-2.56z"  horiz-adv-x="1024" />

    
    <glyph glyph-name="__arrow_left" unicode="&#58892;" d="M563.2 217.6c-2.56 0-7.68 0-10.24 2.56L435.2 337.92c-12.8 12.8-17.92 28.16-17.92 46.08s7.68 33.28 17.92 46.08l117.76 117.76c5.12 5.12 12.8 5.12 17.92 0s5.12-12.8 0-17.92l-117.76-117.76c-15.36-15.36-15.36-38.4 0-53.76l117.76-117.76c5.12-5.12 5.12-12.8 0-17.92 0-5.12-5.12-5.12-7.68-5.12z"  horiz-adv-x="1024" />

    
    <glyph glyph-name="__circle_arrow_up" unicode="&#58893;" d="M512 166.4c-120.32 0-217.6 97.28-217.6 217.6s97.28 217.6 217.6 217.6 217.6-97.28 217.6-217.6-97.28-217.6-217.6-217.6z m0 409.6c-104.96 0-192-87.04-192-192s87.04-192 192-192 192 87.04 192 192-87.04 192-192 192zM576 355.84c-2.56 0-7.68 0-10.24 2.56l-48.64 51.2c-2.56 2.56-7.68 2.56-12.8 0l-48.64-48.64c-5.12-5.12-12.8-5.12-17.92 0s-5.12 12.8 0 17.92l48.64 48.64c12.8 12.8 35.84 12.8 48.64 0l48.64-48.64c5.12-5.12 5.12-12.8 0-17.92 0-2.56-5.12-5.12-7.68-5.12z"  horiz-adv-x="1024" />

    
    <glyph glyph-name="__circle_minus" unicode="&#58894;" d="M512 166.4c-120.32 0-217.6 97.28-217.6 217.6s97.28 217.6 217.6 217.6 217.6-97.28 217.6-217.6-97.28-217.6-217.6-217.6z m0 409.6c-104.96 0-192-87.04-192-192s87.04-192 192-192 192 87.04 192 192-87.04 192-192 192zM576 371.2h-128c-7.68 0-12.8 5.12-12.8 12.8s5.12 12.8 12.8 12.8h128c7.68 0 12.8-5.12 12.8-12.8s-5.12-12.8-12.8-12.8z"  horiz-adv-x="1024" />

    
    <glyph glyph-name="__circle_plus" unicode="&#58895;" d="M512 166.4c-120.32 0-217.6 97.28-217.6 217.6s97.28 217.6 217.6 217.6 217.6-97.28 217.6-217.6-97.28-217.6-217.6-217.6z m0 409.6c-104.96 0-192-87.04-192-192s87.04-192 192-192 192 87.04 192 192-87.04 192-192 192zM576 371.2h-128c-7.68 0-12.8 5.12-12.8 12.8s5.12 12.8 12.8 12.8h128c7.68 0 12.8-5.12 12.8-12.8s-5.12-12.8-12.8-12.8zM512 307.2c-7.68 0-12.8 5.12-12.8 12.8v128c0 7.68 5.12 12.8 12.8 12.8s12.8-5.12 12.8-12.8v-128c0-7.68-5.12-12.8-12.8-12.8z"  horiz-adv-x="1024" />

    
    <glyph glyph-name="__circle_arrow_do" unicode="&#58896;" d="M512 166.4c-120.32 0-217.6 97.28-217.6 217.6s97.28 217.6 217.6 217.6 217.6-97.28 217.6-217.6-97.28-217.6-217.6-217.6z m0 409.6c-104.96 0-192-87.04-192-192s87.04-192 192-192 192 87.04 192 192-87.04 192-192 192zM512 330.24c-7.68 0-17.92 2.56-23.04 10.24l-48.64 48.64c-5.12 5.12-5.12 12.8 0 17.92s12.8 5.12 17.92 0l48.64-48.64c2.56-2.56 7.68-2.56 12.8 0l48.64 48.64c5.12 5.12 12.8 5.12 17.92 0s5.12-12.8 0-17.92L537.6 340.48c-7.68-5.12-17.92-10.24-25.6-10.24z"  horiz-adv-x="1024" />

    
    <glyph glyph-name="__circle_choose" unicode="&#58897;" d="M512 166.4c-120.32 0-217.6 97.28-217.6 217.6s97.28 217.6 217.6 217.6 217.6-97.28 217.6-217.6-97.28-217.6-217.6-217.6z m0 409.6c-104.96 0-192-87.04-192-192s87.04-192 192-192 192 87.04 192 192-87.04 192-192 192zM491.52 320c-10.24 0-17.92 2.56-23.04 10.24L440.32 358.4c-5.12 5.12-5.12 12.8 0 17.92s12.8 5.12 17.92 0l28.16-28.16c2.56-2.56 2.56-2.56 5.12-2.56s5.12 0 5.12 2.56l69.12 69.12c5.12 5.12 12.8 5.12 17.92 0 5.12-5.12 5.12-12.8 0-17.92l-69.12-69.12c-5.12-5.12-12.8-10.24-23.04-10.24z"  horiz-adv-x="1024" />

    
    <glyph glyph-name="__circle_close" unicode="&#58898;" d="M512 166.4c-120.32 0-217.6 97.28-217.6 217.6s97.28 217.6 217.6 217.6 217.6-97.28 217.6-217.6-97.28-217.6-217.6-217.6z m0 409.6c-104.96 0-192-87.04-192-192s87.04-192 192-192 192 87.04 192 192-87.04 192-192 192zM565.76 317.44c-2.56 0-7.68 0-10.24 2.56l-107.52 107.52c-5.12 5.12-5.12 12.8 0 17.92s12.8 5.12 17.92 0l107.52-107.52c5.12-5.12 5.12-12.8 0-17.92-2.56 0-5.12-2.56-7.68-2.56zM458.24 317.44c-2.56 0-7.68 0-10.24 2.56-5.12 5.12-5.12 12.8 0 17.92l107.52 107.52c5.12 5.12 12.8 5.12 17.92 0s5.12-12.8 0-17.92l-107.52-107.52s-5.12-2.56-7.68-2.56z"  horiz-adv-x="1024" />

    
    <glyph glyph-name="__arrow_left1" unicode="&#58899;" d="M450.56 268.8c-2.56 0-7.68 0-10.24 2.56l-84.48 84.48c-15.36 15.36-15.36 38.4 0 53.76l84.48 84.48c5.12 5.12 12.8 5.12 17.92 0s5.12-12.8 0-17.92l-84.48-84.48c-5.12-5.12-5.12-12.8 0-17.92l84.48-84.48c5.12-5.12 5.12-12.8 0-17.92-2.56-2.56-5.12-2.56-7.68-2.56zM680.96 371.2h-307.2c-7.68 0-12.8 5.12-12.8 12.8s5.12 12.8 12.8 12.8h307.2c7.68 0 12.8-5.12 12.8-12.8s-7.68-12.8-12.8-12.8z"  horiz-adv-x="1024" />

    
    <glyph glyph-name="__enter" unicode="&#58900;" d="M358.4 332.8h256c20.48 0 38.4 17.92 38.4 38.4v153.6c0 7.68 5.12 12.8 12.8 12.8s12.8-5.12 12.8-12.8v-153.6c0-35.84-28.16-64-64-64H358.4v25.6zM435.2 230.4c-2.56 0-7.68 0-10.24 2.56l-76.8 76.8c-5.12 5.12-5.12 12.8 0 17.92l76.8 76.8c5.12 5.12 12.8 5.12 17.92 0s5.12-12.8 0-17.92l-66.56-66.56 66.56-66.56c5.12-5.12 5.12-12.8 0-17.92 0-5.12-5.12-5.12-7.68-5.12z"  horiz-adv-x="1024" />

    
    <glyph glyph-name="__arrow_right1" unicode="&#58901;" d="M573.44 268.8c-2.56 0-7.68 0-10.24 2.56-5.12 5.12-5.12 12.8 0 17.92l84.48 84.48c5.12 5.12 5.12 12.8 0 17.92L563.2 476.16c-5.12 5.12-5.12 12.8 0 17.92s12.8 5.12 17.92 0L665.6 409.6c15.36-15.36 15.36-38.4 0-53.76l-84.48-84.48c0-2.56-2.56-2.56-7.68-2.56zM650.24 371.2h-307.2c-7.68 0-12.8 5.12-12.8 12.8s5.12 12.8 12.8 12.8h307.2c7.68 0 12.8-5.12 12.8-12.8s-5.12-12.8-12.8-12.8z"  horiz-adv-x="1024" />

    
    <glyph glyph-name="__refresh" unicode="&#58902;" d="M680.96 340.48c-2.56 0-5.12 0-7.68 2.56l-69.12 61.44c-5.12 5.12-5.12 12.8 0 17.92 5.12 5.12 12.8 5.12 17.92 0l58.88-53.76 53.76 58.88c5.12 5.12 12.8 5.12 17.92 0 5.12-5.12 5.12-12.8 0-17.92L691.2 340.48c-5.12 2.56-7.68 0-10.24 0zM281.6 332.8c-2.56 0-5.12 0-7.68 2.56-5.12 5.12-5.12 12.8 0 17.92l61.44 69.12c2.56 2.56 5.12 5.12 7.68 5.12 2.56 0 7.68 0 10.24-2.56l69.12-61.44c5.12-5.12 5.12-12.8 0-17.92-5.12-5.12-12.8-5.12-17.92 0l-58.88 53.76-53.76-58.88c-2.56-7.68-7.68-7.68-10.24-7.68zM680.96 345.6s-2.56 0 0 0c-7.68 0-12.8 7.68-12.8 15.36 5.12 40.96-5.12 84.48-28.16 117.76-25.6 33.28-61.44 56.32-104.96 61.44-40.96 5.12-84.48-5.12-117.76-28.16-5.12-5.12-12.8-2.56-17.92 2.56-5.12 5.12-2.56 12.8 2.56 17.92 38.4 28.16 87.04 40.96 135.68 33.28 48.64-7.68 92.16-33.28 120.32-71.68 28.16-38.4 40.96-87.04 33.28-135.68 2.56-7.68-5.12-12.8-10.24-12.8zM512 199.68c-10.24 0-17.92 0-28.16 2.56-48.64 7.68-92.16 33.28-120.32 71.68-28.16 38.4-40.96 87.04-33.28 135.68 0 7.68 7.68 12.8 15.36 10.24 7.68 0 12.8-7.68 10.24-15.36-5.12-40.96 5.12-84.48 28.16-117.76 25.6-33.28 61.44-56.32 104.96-61.44 40.96-5.12 84.48 5.12 117.76 28.16 5.12 5.12 12.8 2.56 17.92-2.56 5.12-5.12 2.56-12.8-2.56-17.92-33.28-20.48-71.68-33.28-110.08-33.28z"  horiz-adv-x="1024" />

    
    <glyph glyph-name="__arrow_up1" unicode="&#58903;" d="M614.4 432.64c-2.56 0-7.68 0-10.24 2.56l-84.48 84.48c-5.12 5.12-12.8 5.12-17.92 0L417.28 435.2c-5.12-5.12-12.8-5.12-17.92 0s-5.12 12.8 0 17.92l84.48 84.48c15.36 15.36 38.4 15.36 53.76 0l84.48-84.48c5.12-5.12 5.12-12.8 0-17.92 0 0-5.12-2.56-7.68-2.56zM512 202.24c-7.68 0-12.8 5.12-12.8 12.8v307.2c0 7.68 5.12 12.8 12.8 12.8s12.8-5.12 12.8-12.8v-307.2c0-5.12-5.12-12.8-12.8-12.8z"  horiz-adv-x="1024" />

    
    <glyph glyph-name="__arrow_down1" unicode="&#58904;" d="M512 217.6c-10.24 0-20.48 2.56-28.16 10.24l-84.48 84.48c-5.12 5.12-5.12 12.8 0 17.92s12.8 5.12 17.92 0l84.48-84.48c5.12-5.12 12.8-5.12 17.92 0l84.48 84.48c5.12 5.12 12.8 5.12 17.92 0s5.12-12.8 0-17.92L537.6 227.84c-5.12-7.68-15.36-10.24-25.6-10.24zM512 232.96c-7.68 0-12.8 5.12-12.8 12.8v307.2c0 7.68 5.12 12.8 12.8 12.8s12.8-5.12 12.8-12.8v-307.2c0-7.68-5.12-12.8-12.8-12.8z"  horiz-adv-x="1024" />

    
    <glyph glyph-name="__logout" unicode="&#58905;" d="M614.4 294.4c-2.56 0-7.68 0-10.24 2.56-5.12 5.12-5.12 12.8 0 17.92l66.56 66.56-66.56 66.56c-5.12 5.12-5.12 12.8 0 17.92s12.8 5.12 17.92 0l76.8-76.8c5.12-5.12 5.12-12.8 0-17.92l-76.8-76.8H614.4zM678.4 371.2h-204.8c-7.68 0-12.8 5.12-12.8 12.8s5.12 12.8 12.8 12.8h204.8c7.68 0 12.8-5.12 12.8-12.8s-5.12-12.8-12.8-12.8zM537.6 192h-153.6c-35.84 0-64 28.16-64 64V512c0 35.84 28.16 64 64 64h153.6c7.68 0 12.8-5.12 12.8-12.8s-5.12-12.8-12.8-12.8h-153.6c-20.48 0-38.4-17.92-38.4-38.4v-256c0-20.48 17.92-38.4 38.4-38.4h153.6c7.68 0 12.8-5.12 12.8-12.8s-5.12-12.8-12.8-12.8z"  horiz-adv-x="1024" />

    
    <glyph glyph-name="__login" unicode="&#58906;" d="M448 294.4c-2.56 0-7.68 0-10.24 2.56-5.12 5.12-5.12 12.8 0 17.92l66.56 66.56-66.56 66.56c-5.12 5.12-5.12 12.8 0 17.92s12.8 5.12 17.92 0l76.8-76.8c5.12-5.12 5.12-12.8 0-17.92l-76.8-76.8h-7.68zM512 371.2h-204.8c-7.68 0-12.8 5.12-12.8 12.8s5.12 12.8 12.8 12.8h204.8c7.68 0 12.8-5.12 12.8-12.8s-5.12-12.8-12.8-12.8zM614.4 192h-153.6c-7.68 0-12.8 5.12-12.8 12.8s5.12 12.8 12.8 12.8h153.6c20.48 0 38.4 17.92 38.4 38.4V512c0 20.48-17.92 38.4-38.4 38.4h-153.6c-7.68 0-12.8 5.12-12.8 12.8s5.12 12.8 12.8 12.8h153.6c35.84 0 64-28.16 64-64v-256c0-35.84-28.16-64-64-64z"  horiz-adv-x="1024" />

    
    <glyph glyph-name="__download" unicode="&#58907;" d="M512 332.8c-2.56 0-7.68 0-10.24 2.56l-76.8 76.8c-5.12 5.12-5.12 12.8 0 17.92s12.8 5.12 17.92 0l66.56-66.56 66.56 66.56c5.12 5.12 12.8 5.12 17.92 0s5.12-12.8 0-17.92l-76.8-76.8c2.56-2.56-2.56-2.56-5.12-2.56zM512 345.6c-7.68 0-12.8 5.12-12.8 12.8v204.8c0 7.68 5.12 12.8 12.8 12.8s12.8-5.12 12.8-12.8v-204.8c0-7.68-5.12-12.8-12.8-12.8zM640 192H384c-35.84 0-64 28.16-64 64v51.2c0 7.68 5.12 12.8 12.8 12.8s12.8-5.12 12.8-12.8v-51.2c0-20.48 17.92-38.4 38.4-38.4h256c20.48 0 38.4 17.92 38.4 38.4v51.2c0 7.68 5.12 12.8 12.8 12.8s12.8-5.12 12.8-12.8v-51.2c0-35.84-28.16-64-64-64z"  horiz-adv-x="1024" />

    
    <glyph glyph-name="__upload" unicode="&#58908;" d="M588.8 473.6c-2.56 0-7.68 0-10.24 2.56L512 545.28l-66.56-66.56c-5.12-5.12-12.8-5.12-17.92 0s-5.12 12.8 0 17.92l76.8 76.8c5.12 5.12 12.8 5.12 17.92 0l76.8-76.8c5.12-5.12 5.12-12.8 0-17.92-2.56-5.12-7.68-5.12-10.24-5.12zM512 332.8c-7.68 0-12.8 5.12-12.8 12.8v204.8c0 7.68 5.12 12.8 12.8 12.8s12.8-5.12 12.8-12.8v-204.8c0-7.68-5.12-12.8-12.8-12.8zM640 192H384c-35.84 0-64 28.16-64 64v51.2c0 7.68 5.12 12.8 12.8 12.8s12.8-5.12 12.8-12.8v-51.2c0-20.48 17.92-38.4 38.4-38.4h256c20.48 0 38.4 17.92 38.4 38.4v51.2c0 7.68 5.12 12.8 12.8 12.8s12.8-5.12 12.8-12.8v-51.2c0-35.84-28.16-64-64-64z"  horiz-adv-x="1024" />

    
    <glyph glyph-name="__cloud_upload" unicode="&#58909;" d="M668.16 307.2H640c-7.68 0-12.8 5.12-12.8 12.8s5.12 12.8 12.8 12.8h28.16c10.24 0 20.48 5.12 28.16 12.8 7.68 7.68 10.24 17.92 7.68 30.72-2.56 12.8-15.36 25.6-30.72 28.16l-15.36 2.56c-17.92 2.56-28.16 20.48-25.6 35.84l2.56 17.92v10.24c0 20.48-7.68 38.4-20.48 51.2s-33.28 20.48-51.2 20.48c-25.6 0-51.2-17.92-61.44-43.52l-5.12-10.24c-5.12-12.8-17.92-20.48-33.28-17.92l-12.8 2.56c-23.04 2.56-48.64-12.8-56.32-35.84l-2.56-10.24c-5.12-12.8-12.8-20.48-25.6-20.48l-12.8-2.56c-10.24-2.56-20.48-7.68-25.6-17.92-5.12-10.24-7.68-20.48-2.56-30.72 5.12-12.8 20.48-23.04 35.84-23.04h25.6c7.68 0 12.8-5.12 12.8-12.8s-7.68-12.8-15.36-12.8h-25.6c-28.16 0-51.2 15.36-58.88 40.96-5.12 17.92-5.12 35.84 5.12 51.2 10.24 15.36 25.6 25.6 43.52 28.16l12.8 2.56c2.56 0 5.12 2.56 5.12 5.12l2.56 10.24c10.24 30.72 40.96 53.76 74.24 53.76h7.68l12.8-2.56c2.56 0 5.12 0 7.68 2.56l5.12 10.24c15.36 33.28 48.64 56.32 84.48 58.88 25.6 0 51.2-7.68 71.68-25.6 17.92-17.92 30.72-43.52 30.72-69.12 0-5.12 0-10.24-2.56-15.36l-2.56-17.92c0-2.56 2.56-7.68 5.12-7.68l15.36-2.56c25.6-5.12 46.08-23.04 51.2-48.64 2.56-17.92 0-35.84-12.8-51.2-12.8-15.36-30.72-23.04-48.64-23.04zM550.4 279.04c-2.56 0-7.68 0-10.24 2.56L512 312.32 481.28 281.6c-5.12-5.12-12.8-5.12-17.92 0s-5.12 12.8 0 17.92l38.4 38.4c5.12 5.12 12.8 5.12 17.92 0l38.4-38.4c5.12-5.12 5.12-12.8 0-17.92 0 0-2.56-2.56-7.68-2.56zM512 189.44c-7.68 0-12.8 5.12-12.8 12.8v128c0 7.68 5.12 12.8 12.8 12.8s12.8-5.12 12.8-12.8v-128c0-5.12-5.12-12.8-12.8-12.8z"  horiz-adv-x="1024" />

    
    <glyph glyph-name="__cloud_download" unicode="&#58910;" d="M668.16 307.2H614.4c-7.68 0-12.8 5.12-12.8 12.8s5.12 12.8 12.8 12.8h53.76c10.24 0 20.48 5.12 28.16 12.8 7.68 7.68 10.24 17.92 7.68 30.72-2.56 12.8-15.36 25.6-30.72 28.16l-15.36 2.56c-17.92 2.56-28.16 20.48-25.6 35.84l2.56 17.92v10.24c0 20.48-7.68 38.4-20.48 51.2s-33.28 20.48-51.2 20.48c-25.6 0-51.2-17.92-61.44-43.52l-5.12-10.24c-5.12-12.8-17.92-20.48-33.28-17.92l-12.8 2.56c-23.04 2.56-48.64-12.8-56.32-35.84l-2.56-10.24c-5.12-12.8-12.8-20.48-25.6-20.48l-12.8-2.56c-10.24-2.56-20.48-7.68-25.6-17.92-5.12-10.24-7.68-20.48-2.56-30.72 5.12-12.8 20.48-23.04 35.84-23.04h51.2c7.68 0 12.8-5.12 12.8-12.8s-7.68-12.8-15.36-12.8h-51.2c-28.16 0-51.2 15.36-58.88 40.96-5.12 17.92-5.12 35.84 5.12 51.2 10.24 15.36 25.6 25.6 43.52 28.16l12.8 2.56c2.56 0 5.12 2.56 5.12 5.12l2.56 10.24c10.24 30.72 40.96 53.76 74.24 53.76h7.68l12.8-2.56c2.56 0 5.12 0 7.68 2.56l5.12 10.24c15.36 33.28 48.64 56.32 84.48 58.88 25.6 0 51.2-7.68 71.68-25.6 17.92-17.92 30.72-43.52 30.72-69.12 0-5.12 0-10.24-2.56-15.36l-2.56-17.92c0-2.56 2.56-7.68 5.12-7.68l15.36-2.56c25.6-5.12 46.08-23.04 51.2-48.64 2.56-17.92 0-35.84-12.8-51.2-12.8-15.36-30.72-23.04-48.64-23.04zM509.44 189.44c-2.56 0-7.68 2.56-10.24 2.56L460.8 232.96c-5.12 5.12-5.12 12.8 0 17.92s12.8 5.12 17.92 0l30.72-30.72 30.72 30.72c5.12 5.12 12.8 5.12 17.92 0s5.12-12.8 0-17.92l-38.4-38.4c-5.12-2.56-7.68-5.12-10.24-5.12zM509.44 189.44c-7.68 0-12.8 5.12-12.8 12.8v128c0 7.68 5.12 12.8 12.8 12.8s12.8-5.12 12.8-12.8v-128c0-5.12-7.68-12.8-12.8-12.8z"  horiz-adv-x="1024" />

    
    <glyph glyph-name="__list" unicode="&#58911;" d="M665.6 486.4H358.4c-7.68 0-12.8 5.12-12.8 12.8s5.12 12.8 12.8 12.8h307.2c7.68 0 12.8-5.12 12.8-12.8s-5.12-12.8-12.8-12.8zM665.6 371.2H358.4c-7.68 0-12.8 5.12-12.8 12.8s5.12 12.8 12.8 12.8h307.2c7.68 0 12.8-5.12 12.8-12.8s-5.12-12.8-12.8-12.8zM665.6 256H358.4c-7.68 0-12.8 5.12-12.8 12.8s5.12 12.8 12.8 12.8h307.2c7.68 0 12.8-5.12 12.8-12.8s-5.12-12.8-12.8-12.8z"  horiz-adv-x="1024" />

    
    <glyph glyph-name="__list_item" unicode="&#58912;" d="M665.6 486.4h-204.8c-7.68 0-12.8 5.12-12.8 12.8s5.12 12.8 12.8 12.8h204.8c7.68 0 12.8-5.12 12.8-12.8s-5.12-12.8-12.8-12.8zM665.6 371.2h-204.8c-7.68 0-12.8 5.12-12.8 12.8s5.12 12.8 12.8 12.8h204.8c7.68 0 12.8-5.12 12.8-12.8s-5.12-12.8-12.8-12.8zM665.6 256h-204.8c-7.68 0-12.8 5.12-12.8 12.8s5.12 12.8 12.8 12.8h204.8c7.68 0 12.8-5.12 12.8-12.8s-5.12-12.8-12.8-12.8zM358.4 486.4c-2.56 0-7.68 2.56-10.24 5.12-2.56 2.56-2.56 5.12-2.56 7.68 0 2.56 0 7.68 2.56 10.24 5.12 5.12 12.8 5.12 17.92 0 2.56-2.56 5.12-5.12 5.12-10.24 0-2.56-2.56-7.68-5.12-7.68 0-2.56-5.12-5.12-7.68-5.12zM358.4 371.2c-2.56 0-7.68 2.56-10.24 5.12-2.56 2.56-2.56 5.12-2.56 7.68 0 2.56 0 7.68 2.56 10.24 5.12 5.12 12.8 5.12 17.92 0 2.56-2.56 5.12-5.12 5.12-10.24 0-2.56-2.56-7.68-5.12-7.68 0-2.56-5.12-5.12-7.68-5.12zM358.4 256c-2.56 0-7.68 2.56-10.24 5.12-2.56 2.56-2.56 5.12-2.56 7.68 0 2.56 0 7.68 2.56 10.24 5.12 5.12 12.8 5.12 17.92 0 2.56-2.56 5.12-5.12 5.12-10.24 0-2.56-2.56-7.68-5.12-7.68 0-2.56-5.12-5.12-7.68-5.12z"  horiz-adv-x="1024" />

    
    <glyph glyph-name="__list_choose" unicode="&#58913;" d="M655.36 499.2h-174.08c-7.68 0-12.8 5.12-12.8 12.8s5.12 12.8 12.8 12.8h174.08c7.68 0 12.8-5.12 12.8-12.8s-5.12-12.8-12.8-12.8zM655.36 371.2h-174.08c-7.68 0-12.8 5.12-12.8 12.8s5.12 12.8 12.8 12.8h174.08c7.68 0 12.8-5.12 12.8-12.8s-5.12-12.8-12.8-12.8zM655.36 243.2h-174.08c-7.68 0-12.8 5.12-12.8 12.8s5.12 12.8 12.8 12.8h174.08c7.68 0 12.8-5.12 12.8-12.8s-5.12-12.8-12.8-12.8zM384 486.4c-5.12 0-10.24 2.56-15.36 5.12l-10.24 10.24c-5.12 5.12-5.12 12.8 0 17.92s12.8 5.12 17.92 0l5.12-5.12 17.92 20.48c5.12 5.12 12.8 5.12 17.92 0 5.12-5.12 5.12-12.8 0-17.92l-23.04-23.04c0-5.12-5.12-7.68-10.24-7.68zM384 358.4c-5.12 0-10.24 2.56-15.36 5.12l-10.24 10.24c-5.12 5.12-5.12 12.8 0 17.92s12.8 5.12 17.92 0l5.12-5.12 17.92 20.48c5.12 5.12 12.8 5.12 17.92 0 5.12-5.12 5.12-12.8 0-17.92l-23.04-23.04c0-5.12-5.12-7.68-10.24-7.68zM384 230.4c-5.12 0-10.24 2.56-15.36 5.12l-10.24 10.24c-5.12 5.12-5.12 12.8 0 17.92s12.8 5.12 17.92 0l5.12-5.12 17.92 20.48c5.12 5.12 12.8 5.12 17.92 0 5.12-5.12 5.12-12.8 0-17.92l-23.04-23.04c0-5.12-5.12-7.68-10.24-7.68z"  horiz-adv-x="1024" />

    
    <glyph glyph-name="__text" unicode="&#58914;" d="M627.2 166.4h-230.4c-35.84 0-64 28.16-64 64V537.6c0 35.84 28.16 64 64 64h230.4c35.84 0 64-28.16 64-64v-307.2c0-35.84-28.16-64-64-64z m-230.4 409.6c-20.48 0-38.4-17.92-38.4-38.4v-307.2c0-20.48 17.92-38.4 38.4-38.4h230.4c20.48 0 38.4 17.92 38.4 38.4V537.6c0 20.48-17.92 38.4-38.4 38.4h-230.4zM588.8 473.6h-153.6c-7.68 0-12.8 5.12-12.8 12.8s5.12 12.8 12.8 12.8h153.6c7.68 0 12.8-5.12 12.8-12.8s-5.12-12.8-12.8-12.8zM588.8 371.2h-153.6c-7.68 0-12.8 5.12-12.8 12.8s5.12 12.8 12.8 12.8h153.6c7.68 0 12.8-5.12 12.8-12.8s-5.12-12.8-12.8-12.8zM588.8 268.8h-153.6c-7.68 0-12.8 5.12-12.8 12.8s5.12 12.8 12.8 12.8h153.6c7.68 0 12.8-5.12 12.8-12.8s-5.12-12.8-12.8-12.8z"  horiz-adv-x="1024" />

    
    <glyph glyph-name="__file_empty" unicode="&#58915;" d="M614.4 166.4h-204.8c-35.84 0-64 28.16-64 64V537.6c0 35.84 28.16 64 64 64h92.16c10.24 0 20.48-5.12 28.16-10.24l138.24-138.24c7.68-7.68 10.24-17.92 10.24-28.16V230.4c0-35.84-28.16-64-64-64z m-204.8 409.6c-20.48 0-38.4-17.92-38.4-38.4v-307.2c0-20.48 17.92-38.4 38.4-38.4h204.8c20.48 0 38.4 17.92 38.4 38.4v194.56c0 2.56-2.56 7.68-2.56 10.24L512 573.44c-2.56 2.56-5.12 2.56-10.24 2.56H409.6zM524.8 588.8v-102.4c0-20.48 17.92-38.4 38.4-38.4h102.4v-25.6h-102.4c-35.84 0-64 28.16-64 64v102.4h25.6z"  horiz-adv-x="1024" />

    
    <glyph glyph-name="__file_text" unicode="&#58916;" d="M614.4 166.4h-204.8c-35.84 0-64 28.16-64 64V537.6c0 35.84 28.16 64 64 64h92.16c10.24 0 20.48-5.12 28.16-10.24l138.24-138.24c7.68-7.68 10.24-17.92 10.24-28.16V230.4c0-35.84-28.16-64-64-64z m-204.8 409.6c-20.48 0-38.4-17.92-38.4-38.4v-307.2c0-20.48 17.92-38.4 38.4-38.4h204.8c20.48 0 38.4 17.92 38.4 38.4v194.56c0 2.56-2.56 7.68-2.56 10.24L512 573.44c-2.56 2.56-5.12 2.56-10.24 2.56H409.6zM524.8 588.8v-102.4c0-20.48 17.92-38.4 38.4-38.4h102.4v-25.6h-102.4c-35.84 0-64 28.16-64 64v102.4h25.6zM588.8 230.4h-153.6c-7.68 0-12.8 5.12-12.8 12.8s5.12 12.8 12.8 12.8h153.6c7.68 0 12.8-5.12 12.8-12.8s-5.12-12.8-12.8-12.8zM588.8 294.4h-153.6c-7.68 0-12.8 5.12-12.8 12.8s5.12 12.8 12.8 12.8h153.6c7.68 0 12.8-5.12 12.8-12.8s-5.12-12.8-12.8-12.8zM588.8 358.4h-153.6c-7.68 0-12.8 5.12-12.8 12.8s5.12 12.8 12.8 12.8h153.6c7.68 0 12.8-5.12 12.8-12.8s-5.12-12.8-12.8-12.8z"  horiz-adv-x="1024" />

    
    <glyph glyph-name="__file_plus" unicode="&#58917;" d="M614.4 166.4h-204.8c-35.84 0-64 28.16-64 64V537.6c0 35.84 28.16 64 64 64h92.16c10.24 0 20.48-5.12 28.16-10.24l138.24-138.24c7.68-7.68 10.24-17.92 10.24-28.16V230.4c0-35.84-28.16-64-64-64z m-204.8 409.6c-20.48 0-38.4-17.92-38.4-38.4v-307.2c0-20.48 17.92-38.4 38.4-38.4h204.8c20.48 0 38.4 17.92 38.4 38.4v194.56c0 2.56-2.56 7.68-2.56 10.24L512 573.44c-2.56 2.56-5.12 2.56-10.24 2.56H409.6zM524.8 588.8v-102.4c0-20.48 17.92-38.4 38.4-38.4h102.4v-25.6h-102.4c-35.84 0-64 28.16-64 64v102.4h25.6zM563.2 314.88h-102.4c-7.68 0-12.8 5.12-12.8 12.8s5.12 12.8 12.8 12.8h102.4c7.68 0 12.8-5.12 12.8-12.8s-5.12-12.8-12.8-12.8zM512 263.68c-7.68 0-12.8 5.12-12.8 12.8v102.4c0 7.68 5.12 12.8 12.8 12.8s12.8-5.12 12.8-12.8v-102.4c0-7.68-5.12-12.8-12.8-12.8z"  horiz-adv-x="1024" />

    
    <glyph glyph-name="__file_minus" unicode="&#58918;" d="M614.4 166.4h-204.8c-35.84 0-64 28.16-64 64V537.6c0 35.84 28.16 64 64 64h92.16c10.24 0 20.48-5.12 28.16-10.24l138.24-138.24c7.68-7.68 10.24-17.92 10.24-28.16V230.4c0-35.84-28.16-64-64-64z m-204.8 409.6c-20.48 0-38.4-17.92-38.4-38.4v-307.2c0-20.48 17.92-38.4 38.4-38.4h204.8c20.48 0 38.4 17.92 38.4 38.4v194.56c0 2.56-2.56 7.68-2.56 10.24L512 573.44c-2.56 2.56-5.12 2.56-10.24 2.56H409.6zM524.8 588.8v-102.4c0-20.48 17.92-38.4 38.4-38.4h102.4v-25.6h-102.4c-35.84 0-64 28.16-64 64v102.4h25.6zM563.2 314.88h-102.4c-7.68 0-12.8 5.12-12.8 12.8s5.12 12.8 12.8 12.8h102.4c7.68 0 12.8-5.12 12.8-12.8s-5.12-12.8-12.8-12.8z"  horiz-adv-x="1024" />

    
    <glyph glyph-name="__help" unicode="&#58919;" d="M512 345.6c-7.68 0-12.8 5.12-12.8 12.8 0 23.04 10.24 46.08 30.72 61.44 10.24 7.68 12.8 17.92 10.24 30.72-2.56 10.24-10.24 20.48-23.04 23.04-10.24 2.56-17.92 0-25.6-5.12-7.68-5.12-10.24-15.36-10.24-23.04 0-7.68-5.12-12.8-12.8-12.8s-12.8 5.12-12.8 12.8c0 17.92 7.68 33.28 20.48 43.52s30.72 15.36 46.08 10.24c20.48-5.12 38.4-20.48 43.52-43.52 5.12-20.48-2.56-40.96-20.48-56.32-12.8-10.24-23.04-25.6-23.04-40.96 2.56-7.68-2.56-12.8-10.24-12.8zM512 268.8c-2.56 0-7.68 2.56-10.24 5.12-2.56 2.56-2.56 5.12-2.56 7.68 0 2.56 0 7.68 2.56 10.24 5.12 5.12 12.8 5.12 17.92 0 2.56-2.56 5.12-5.12 5.12-10.24 0-2.56-2.56-7.68-5.12-7.68 0-2.56-5.12-5.12-7.68-5.12zM512 166.4c-120.32 0-217.6 97.28-217.6 217.6s97.28 217.6 217.6 217.6 217.6-97.28 217.6-217.6-97.28-217.6-217.6-217.6z m0 409.6c-104.96 0-192-87.04-192-192s87.04-192 192-192 192 87.04 192 192-87.04 192-192 192z"  horiz-adv-x="1024" />

    
    <glyph glyph-name="__file_delete" unicode="&#58920;" d="M614.4 166.4h-204.8c-35.84 0-64 28.16-64 64V537.6c0 35.84 28.16 64 64 64h92.16c10.24 0 20.48-5.12 28.16-10.24l138.24-138.24c7.68-7.68 10.24-17.92 10.24-28.16V230.4c0-35.84-28.16-64-64-64z m-204.8 409.6c-20.48 0-38.4-17.92-38.4-38.4v-307.2c0-20.48 17.92-38.4 38.4-38.4h204.8c20.48 0 38.4 17.92 38.4 38.4v194.56c0 2.56-2.56 7.68-2.56 10.24L512 573.44c-2.56 2.56-5.12 2.56-10.24 2.56H409.6zM665.6 422.4h-102.4c-35.84 0-64 28.16-64 64v102.4c0 7.68 5.12 12.8 12.8 12.8s12.8-5.12 12.8-12.8v-102.4c0-20.48 17.92-38.4 38.4-38.4h102.4c7.68 0 12.8-5.12 12.8-12.8s-5.12-12.8-12.8-12.8zM550.4 258.56c-2.56 0-7.68 0-10.24 2.56l-76.8 76.8c-5.12 5.12-5.12 12.8 0 17.92s12.8 5.12 17.92 0l76.8-76.8c5.12-5.12 5.12-12.8 0-17.92 0 0-5.12-2.56-7.68-2.56zM473.6 258.56c-2.56 0-7.68 0-10.24 2.56-5.12 5.12-5.12 12.8 0 17.92l76.8 76.8c5.12 5.12 12.8 5.12 17.92 0s5.12-12.8 0-17.92l-76.8-76.8s-5.12-2.56-7.68-2.56z"  horiz-adv-x="1024" />

    
    <glyph glyph-name="__caution" unicode="&#58921;" d="M512 358.4c-7.68 0-12.8 5.12-12.8 12.8v92.16c0 7.68 5.12 12.8 12.8 12.8s12.8-5.12 12.8-12.8v-92.16c0-7.68-5.12-12.8-12.8-12.8zM512 291.84c-2.56 0-7.68 0-10.24 2.56-2.56 2.56-2.56 5.12-2.56 10.24 0 2.56 0 7.68 2.56 10.24 5.12 5.12 12.8 5.12 17.92 0 2.56-2.56 2.56-5.12 2.56-10.24 0-2.56-2.56-7.68-5.12-10.24 2.56-2.56-2.56-2.56-5.12-2.56zM663.04 212.48H360.96c-23.04 0-46.08 12.8-56.32 33.28-12.8 20.48-12.8 46.08 0 66.56l151.04 263.68c12.8 20.48 33.28 33.28 56.32 33.28s46.08-12.8 56.32-33.28l151.04-263.68c12.8-20.48 12.8-46.08 0-66.56-10.24-20.48-30.72-33.28-56.32-33.28zM512 581.12c-15.36 0-28.16-7.68-33.28-20.48l-151.04-263.68c-7.68-12.8-7.68-28.16 0-40.96s20.48-20.48 33.28-20.48H665.6c15.36 0 28.16 7.68 33.28 20.48 7.68 12.8 7.68 28.16 0 40.96l-151.04 263.68c-7.68 12.8-20.48 20.48-35.84 20.48z"  horiz-adv-x="1024" />

    
    <glyph glyph-name="__hint" unicode="&#58922;" d="M512 294.4c-7.68 0-12.8 5.12-12.8 12.8v76.8c0 7.68 5.12 12.8 12.8 12.8s12.8-5.12 12.8-12.8v-76.8c0-7.68-5.12-12.8-12.8-12.8zM512 448c-2.56 0-7.68 2.56-10.24 2.56-2.56 2.56-2.56 5.12-2.56 10.24 0 2.56 0 7.68 2.56 10.24 5.12 5.12 12.8 5.12 17.92 0 2.56-2.56 5.12-5.12 5.12-10.24 0-2.56-2.56-7.68-2.56-7.68-2.56-2.56-7.68-5.12-10.24-5.12zM647.68 192H378.88c-30.72 0-58.88 25.6-58.88 58.88V517.12c0 30.72 25.6 58.88 58.88 58.88h268.8c30.72 0 58.88-25.6 58.88-58.88v-268.8c-2.56-30.72-28.16-56.32-58.88-56.32z m-268.8 358.4c-17.92 0-33.28-15.36-33.28-33.28v-268.8c0-17.92 15.36-33.28 33.28-33.28h268.8c17.92 0 33.28 15.36 33.28 33.28V517.12c0 17.92-15.36 33.28-33.28 33.28H378.88z"  horiz-adv-x="1024" />

    
    <glyph glyph-name="__no" unicode="&#58923;" d="M512 166.4c-120.32 0-217.6 97.28-217.6 217.6s97.28 217.6 217.6 217.6 217.6-97.28 217.6-217.6-97.28-217.6-217.6-217.6z m0 409.6c-104.96 0-192-87.04-192-192s87.04-192 192-192 192 87.04 192 192-87.04 192-192 192zM512 217.6c-92.16 0-166.4 74.24-166.4 166.4 0 33.28 10.24 66.56 30.72 97.28 2.56 2.56 5.12 5.12 10.24 5.12 2.56 0 7.68 0 10.24-2.56l212.48-212.48c2.56-2.56 5.12-5.12 2.56-10.24 0-2.56-2.56-7.68-5.12-10.24-28.16-23.04-61.44-33.28-94.72-33.28z m-122.88 235.52c-12.8-20.48-17.92-43.52-17.92-69.12 0-76.8 64-140.8 140.8-140.8 23.04 0 48.64 5.12 69.12 17.92l-192 192zM637.44 281.6c-2.56 0-7.68 2.56-10.24 2.56l-212.48 212.48c-2.56 2.56-5.12 5.12-2.56 10.24 0 2.56 2.56 7.68 5.12 10.24 28.16 20.48 61.44 30.72 97.28 30.72 92.16 0 166.4-74.24 166.4-166.4 0-33.28-10.24-66.56-30.72-97.28-5.12 0-7.68-2.56-12.8-2.56z m-194.56 225.28l192-192c12.8 20.48 17.92 43.52 17.92 69.12 0 76.8-64 140.8-140.8 140.8-23.04 0-48.64-5.12-69.12-17.92z"  horiz-adv-x="1024" />

    
    <glyph glyph-name="__bell" unicode="&#58924;" d="M512 250.88c-92.16 0-192 20.48-192 64 0 7.68 5.12 12.8 12.8 12.8 20.48 0 38.4 17.92 38.4 38.4v51.2c0 76.8 64 140.8 140.8 140.8s140.8-64 140.8-140.8v-51.2c0-20.48 17.92-38.4 38.4-38.4 7.68 0 12.8-5.12 12.8-12.8 0-43.52-99.84-64-192-64z m-158.72 53.76c20.48-12.8 71.68-28.16 158.72-28.16s138.24 15.36 158.72 28.16c-25.6 7.68-43.52 33.28-43.52 61.44v51.2c0 64-51.2 115.2-115.2 115.2s-115.2-51.2-115.2-115.2v-51.2c0-28.16-17.92-51.2-43.52-61.44zM512 186.88c-43.52 0-76.8 33.28-76.8 76.8 0 7.68 5.12 12.8 12.8 12.8s12.8-5.12 12.8-12.8c0-28.16 23.04-51.2 51.2-51.2s51.2 23.04 51.2 51.2c0 7.68 5.12 12.8 12.8 12.8s12.8-5.12 12.8-12.8c0-43.52-33.28-76.8-76.8-76.8zM499.2 545.28v51.2c0 7.68 5.12 12.8 12.8 12.8s12.8-5.12 12.8-12.8v-51.2h-25.6z"  horiz-adv-x="1024" />

    
    <glyph glyph-name="__lampbulb" unicode="&#58925;" d="M558.08 217.6h-89.6c-20.48 0-35.84 15.36-35.84 35.84 0 43.52-12.8 81.92-35.84 110.08-25.6 33.28-35.84 74.24-30.72 115.2 10.24 64 64 115.2 128 122.88 89.6 10.24 163.84-58.88 163.84-145.92 0-30.72-10.24-61.44-28.16-87.04-25.6-33.28-38.4-71.68-38.4-107.52v-7.68c0-20.48-15.36-35.84-33.28-35.84z m-46.08 358.4h-15.36c-53.76-5.12-97.28-48.64-104.96-102.4-5.12-35.84 2.56-69.12 25.6-94.72 25.6-33.28 40.96-76.8 40.96-125.44 0-7.68 5.12-10.24 10.24-10.24h89.6c5.12 0 10.24 5.12 10.24 10.24v7.68c0 40.96 15.36 84.48 43.52 122.88 15.36 20.48 23.04 46.08 23.04 71.68 0 66.56-56.32 120.32-122.88 120.32zM573.44 238.08c2.56-2.56 2.56-7.68 0-12.8l-25.6-51.2c-2.56-5.12-7.68-7.68-10.24-7.68h-51.2c-5.12 0-10.24 2.56-10.24 7.68l-25.6 51.2c-2.56 5.12-2.56 7.68 0 12.8h122.88z m-79.36-46.08h35.84l12.8 25.6h-61.44l12.8-25.6zM435.2 332.8h156.16v-25.6H435.2z"  horiz-adv-x="1024" />

    
    <glyph glyph-name="__message" unicode="&#58926;" d="M691.2 220.16c-10.24 0-17.92 2.56-25.6 10.24l-40.96 35.84H384c-48.64 0-89.6 40.96-89.6 89.6v102.4c0 48.64 40.96 89.6 89.6 89.6h256c48.64 0 89.6-40.96 89.6-89.6v-199.68c0-20.48-17.92-38.4-38.4-38.4zM384 522.24c-35.84 0-64-28.16-64-64v-102.4c0-35.84 28.16-64 64-64h245.76c2.56 0 5.12 0 7.68-2.56l46.08-40.96c7.68-7.68 20.48-2.56 20.48 10.24v199.68c0 35.84-28.16 64-64 64H384zM409.6 384c-5.12 0-10.24 2.56-12.8 5.12-2.56 2.56-5.12 7.68-5.12 12.8s2.56 10.24 5.12 12.8c7.68 7.68 20.48 7.68 28.16 0 2.56-2.56 5.12-7.68 5.12-12.8s-2.56-10.24-5.12-12.8c-5.12-2.56-10.24-5.12-15.36-5.12zM512 384c-5.12 0-10.24 2.56-12.8 5.12-2.56 2.56-5.12 7.68-5.12 12.8s2.56 10.24 5.12 12.8c7.68 7.68 20.48 7.68 28.16 0 2.56-2.56 5.12-7.68 5.12-12.8s-2.56-10.24-5.12-12.8c-5.12-2.56-10.24-5.12-15.36-5.12zM614.4 384c-5.12 0-10.24 2.56-12.8 5.12-2.56 2.56-5.12 7.68-5.12 12.8s2.56 10.24 5.12 12.8c7.68 7.68 20.48 7.68 28.16 0 2.56-2.56 5.12-7.68 5.12-12.8s-2.56-10.24-5.12-12.8c-5.12-2.56-10.24-5.12-15.36-5.12z"  horiz-adv-x="1024" />

    
    <glyph glyph-name="__mail" unicode="&#58927;" d="M647.68 230.4H376.32c-38.4 0-69.12 30.72-69.12 69.12v171.52c0 38.4 30.72 69.12 69.12 69.12h273.92c38.4 0 69.12-30.72 69.12-69.12v-171.52c-2.56-38.4-33.28-69.12-71.68-69.12zM376.32 512c-23.04 0-43.52-20.48-43.52-43.52v-171.52c0-23.04 20.48-43.52 43.52-43.52h273.92c23.04 0 43.52 20.48 43.52 43.52v171.52c0 23.04-20.48 43.52-43.52 43.52H376.32zM711.68 450.56L552.96 358.4c-10.24-7.68-25.6-10.24-40.96-10.24s-28.16 2.56-40.96 10.24l-158.72 92.16 12.8 23.04 158.72-92.16c15.36-7.68 40.96-7.68 53.76 0l158.72 92.16 15.36-23.04zM426.0864 402.688l19.84-16.1792-110.08-134.8608-19.84 16.1792zM599.0912 402.1248l110.08-134.8608-19.8144-16.1792-110.08 134.8352z"  horiz-adv-x="1024" />

    
    <glyph glyph-name="__chat" unicode="&#58928;" d="M688.64 230.4c-7.68 0-12.8 2.56-17.92 7.68l-25.6 20.48h-148.48c-33.28 0-61.44 28.16-61.44 61.44V384c0 33.28 28.16 61.44 61.44 61.44h161.28c33.28 0 61.44-28.16 61.44-61.44v-125.44c-2.56-15.36-15.36-28.16-30.72-28.16z m-192 186.88c-20.48 0-35.84-15.36-35.84-35.84v-64c0-20.48 15.36-35.84 35.84-35.84h153.6c2.56 0 5.12 0 7.68-2.56l30.72-25.6s2.56 0 2.56 2.56v128c0 20.48-15.36 35.84-35.84 35.84h-158.72zM512 335.36c-2.56 0-7.68 0-10.24 2.56-2.56 2.56-2.56 5.12-2.56 10.24 0 2.56 0 7.68 2.56 7.68 5.12 5.12 12.8 5.12 17.92 0 2.56-2.56 2.56-5.12 2.56-7.68 0-2.56 0-7.68-2.56-10.24 0 0-5.12-2.56-7.68-2.56zM576 335.36c-2.56 0-7.68 0-10.24 2.56-2.56 2.56-5.12 5.12-5.12 10.24 0 2.56 2.56 7.68 5.12 7.68 5.12 5.12 12.8 5.12 17.92 0 2.56-2.56 2.56-5.12 2.56-7.68 0-2.56-2.56-7.68-2.56-10.24 0 0-5.12-2.56-7.68-2.56zM640 335.36c-2.56 0-7.68 0-10.24 2.56-2.56 2.56-5.12 5.12-5.12 10.24 0 2.56 2.56 7.68 5.12 7.68 5.12 5.12 12.8 5.12 17.92 0 2.56-2.56 5.12-5.12 5.12-10.24 0-2.56-2.56-7.68-2.56-10.24-2.56 2.56-7.68 0-10.24 0zM512 430.08c-2.56 0-7.68 0-7.68 2.56-2.56 2.56-5.12 5.12-5.12 10.24 0 2.56 2.56 7.68 5.12 10.24 5.12 5.12 12.8 5.12 17.92 0 2.56-2.56 5.12-5.12 5.12-10.24 0-2.56-2.56-7.68-5.12-10.24-5.12 0-7.68-2.56-10.24-2.56zM448 430.08c-2.56 0-7.68 0-10.24 2.56-2.56 5.12-2.56 7.68-2.56 10.24 0 2.56 0 7.68 2.56 10.24 5.12 5.12 12.8 5.12 17.92 0 2.56-2.56 5.12-5.12 5.12-10.24 0-2.56-2.56-7.68-5.12-10.24 0 0-5.12-2.56-7.68-2.56zM384 430.08c-2.56 0-7.68 0-10.24 2.56-2.56 2.56-2.56 5.12-2.56 10.24 0 2.56 0 7.68 2.56 10.24 5.12 5.12 12.8 5.12 17.92 0 2.56-2.56 5.12-5.12 5.12-10.24 0-2.56-2.56-7.68-5.12-10.24 0 0-5.12-2.56-7.68-2.56zM448 353.28h-69.12l-25.6-20.48c-5.12-5.12-12.8-7.68-17.92-7.68-5.12 0-7.68 0-12.8 2.56-10.24 5.12-17.92 15.36-17.92 25.6v125.44c0 33.28 28.16 61.44 61.44 61.44h161.28c33.28 0 61.44-28.16 61.44-61.44v-46.08h-25.6v46.08c0 20.48-15.36 35.84-35.84 35.84h-161.28c-20.48 0-35.84-15.36-35.84-35.84v-125.44c0-2.56 0-2.56 2.56-2.56h2.56l28.16 25.6c2.56 2.56 5.12 2.56 7.68 2.56h74.24v-25.6z"  horiz-adv-x="1024" />

    
    <glyph glyph-name="__megaphone" unicode="&#58929;" d="M591.36 248.32c-2.56 0-7.68 0-10.24 2.56l-238.08 69.12c-28.16 7.68-46.08 33.28-46.08 61.44v51.2c0 28.16 17.92 53.76 46.08 61.44l238.08 69.12c23.04 7.68 48.64-12.8 48.64-35.84v-238.08c0-10.24-5.12-20.48-10.24-28.16-7.68-10.24-17.92-12.8-28.16-12.8z m0 289.28H588.8l-238.08-69.12c-15.36-5.12-28.16-20.48-28.16-35.84v-51.2c0-17.92 10.24-33.28 28.16-35.84l238.08-69.12c5.12 0 10.24 0 12.8 2.56 2.56 2.56 2.56 5.12 2.56 10.24v238.08c0 5.12-5.12 10.24-12.8 10.24zM609.28 483.84c2.56 2.56 7.68 2.56 12.8 0l51.2-25.6c5.12-2.56 7.68-7.68 7.68-10.24v-76.8c0-5.12-2.56-10.24-7.68-10.24l-51.2-25.6c-2.56 0-2.56-2.56-5.12-2.56s-5.12 0-7.68 2.56v148.48z m20.48-30.72v-87.04l25.6 12.8v61.44l-25.6 12.8zM381.44 327.68l43.52-179.2c2.56-7.68-2.56-12.8-10.24-15.36h-2.56c-5.12 0-10.24 5.12-12.8 10.24l-43.52 179.2 25.6 5.12z"  horiz-adv-x="1024" />

    
    <glyph glyph-name="__pad" unicode="&#58930;" d="M627.2 166.4h-230.4c-35.84 0-64 28.16-64 64V537.6c0 35.84 28.16 64 64 64h230.4c35.84 0 64-28.16 64-64v-307.2c0-35.84-28.16-64-64-64z m-230.4 409.6c-20.48 0-38.4-17.92-38.4-38.4v-307.2c0-20.48 17.92-38.4 38.4-38.4h230.4c20.48 0 38.4 17.92 38.4 38.4V537.6c0 20.48-17.92 38.4-38.4 38.4h-230.4zM627.2 268.8h-230.4c-7.68 0-12.8 5.12-12.8 12.8V537.6c0 7.68 5.12 12.8 12.8 12.8h230.4c7.68 0 12.8-5.12 12.8-12.8v-256c0-7.68-5.12-12.8-12.8-12.8z m-217.6 25.6h204.8v230.4h-204.8v-230.4zM512 202.24c-7.68 0-12.8 2.56-17.92 7.68-5.12 5.12-7.68 10.24-7.68 17.92 0 7.68 2.56 12.8 7.68 17.92 10.24 10.24 25.6 10.24 35.84 0 5.12-5.12 7.68-10.24 7.68-17.92 0-7.68-2.56-12.8-7.68-17.92-5.12-5.12-10.24-7.68-17.92-7.68z"  horiz-adv-x="1024" />

    
    <glyph glyph-name="__phone" unicode="&#58931;" d="M578.56 166.4h-133.12c-33.28 0-61.44 28.16-61.44 61.44V540.16c0 33.28 28.16 61.44 61.44 61.44h133.12c33.28 0 61.44-28.16 61.44-61.44v-312.32c0-33.28-28.16-61.44-61.44-61.44z m-133.12 409.6c-20.48 0-35.84-15.36-35.84-35.84v-312.32c0-20.48 15.36-35.84 35.84-35.84h133.12c20.48 0 35.84 15.36 35.84 35.84V540.16c0 20.48-15.36 35.84-35.84 35.84h-133.12zM581.12 268.8h-138.24c-7.68 0-12.8 5.12-12.8 12.8V537.6c0 7.68 5.12 12.8 12.8 12.8h138.24c7.68 0 12.8-5.12 12.8-12.8v-256c0-7.68-5.12-12.8-12.8-12.8z m-125.44 25.6h112.64v230.4h-112.64v-230.4zM512 204.8c-7.68 0-12.8 2.56-17.92 7.68-5.12 5.12-7.68 10.24-7.68 17.92s2.56 12.8 7.68 17.92c10.24 10.24 25.6 10.24 35.84 0 5.12-5.12 7.68-10.24 7.68-17.92 0-7.68-2.56-12.8-7.68-17.92-5.12-5.12-10.24-7.68-17.92-7.68z"  horiz-adv-x="1024" />

    
    <glyph glyph-name="__mouse" unicode="&#58932;" d="M550.4 140.8h-79.36c-69.12 0-128 56.32-128 128v232.96c0 69.12 56.32 128 128 128h79.36c69.12 0 128-56.32 128-128v-232.96c0-71.68-56.32-128-128-128z m-76.8 460.8c-56.32 0-102.4-46.08-102.4-102.4v-232.96c0-56.32 46.08-102.4 102.4-102.4h79.36c56.32 0 102.4 46.08 102.4 102.4v232.96c0 56.32-46.08 102.4-102.4 102.4h-79.36zM524.8 614.4v-115.2c0-7.68-5.12-12.8-12.8-12.8s-12.8 5.12-12.8 12.8V614.4h25.6zM358.4 424.96h307.2v-25.6H358.4z"  horiz-adv-x="1024" />

    
    <glyph glyph-name="__desktop" unicode="&#58933;" d="M691.2 256H358.4c-35.84 0-64 28.16-64 64v204.8c0 35.84 28.16 64 64 64h332.8c35.84 0 64-28.16 64-64v-204.8c0-35.84-28.16-64-64-64zM358.4 563.2c-20.48 0-38.4-17.92-38.4-38.4v-204.8c0-20.48 17.92-38.4 38.4-38.4h332.8c20.48 0 38.4 17.92 38.4 38.4v204.8c0 20.48-17.92 38.4-38.4 38.4H358.4zM562.3552 273.3056l25.9072-77.696-24.2688-8.1152-25.9072 77.7216zM487.2448 273.3056l24.2688-8.0896-25.9072-77.7216-24.2944 8.0896zM691.2 307.2H358.4c-7.68 0-12.8 5.12-12.8 12.8v204.8c0 7.68 5.12 12.8 12.8 12.8h332.8c7.68 0 12.8-5.12 12.8-12.8v-204.8c0-7.68-5.12-12.8-12.8-12.8z m-320 25.6h307.2v179.2h-307.2v-179.2zM601.6 179.2h-153.6c-7.68 0-12.8 5.12-12.8 12.8s5.12 12.8 12.8 12.8h153.6c7.68 0 12.8-5.12 12.8-12.8s-5.12-12.8-12.8-12.8z"  horiz-adv-x="1024" />

    
    <glyph glyph-name="__battery_empty" unicode="&#58934;" d="M634.88 243.2H363.52c-38.4 0-69.12 30.72-69.12 69.12v140.8c0 38.4 30.72 69.12 69.12 69.12h268.8c38.4 0 69.12-30.72 69.12-69.12v-140.8c2.56-38.4-28.16-69.12-66.56-69.12z m-271.36 256c-25.6 0-43.52-20.48-43.52-43.52v-140.8c0-25.6 20.48-43.52 43.52-43.52h268.8c25.6 0 43.52 20.48 43.52 43.52v140.8c0 25.6-20.48 43.52-43.52 43.52H363.52zM691.2 419.84h25.6c7.68 0 12.8-5.12 12.8-12.8v-51.2c0-7.68-5.12-12.8-12.8-12.8h-25.6v76.8z"  horiz-adv-x="1024" />

    
    <glyph glyph-name="__battery_full" unicode="&#58935;" d="M634.88 243.2H363.52c-38.4 0-69.12 30.72-69.12 69.12v140.8c0 38.4 30.72 69.12 69.12 69.12h268.8c38.4 0 69.12-30.72 69.12-69.12v-140.8c2.56-38.4-28.16-69.12-66.56-69.12z m-271.36 256c-25.6 0-43.52-20.48-43.52-43.52v-140.8c0-25.6 20.48-43.52 43.52-43.52h268.8c25.6 0 43.52 20.48 43.52 43.52v140.8c0 25.6-20.48 43.52-43.52 43.52H363.52zM691.2 419.84h25.6c7.68 0 12.8-5.12 12.8-12.8v-51.2c0-7.68-5.12-12.8-12.8-12.8h-25.6v76.8zM384 320c-7.68 0-12.8 5.12-12.8 12.8v102.4c0 7.68 5.12 12.8 12.8 12.8s12.8-5.12 12.8-12.8v-102.4c0-7.68-5.12-12.8-12.8-12.8zM460.8 320c-7.68 0-12.8 5.12-12.8 12.8v102.4c0 7.68 5.12 12.8 12.8 12.8s12.8-5.12 12.8-12.8v-102.4c0-7.68-5.12-12.8-12.8-12.8zM537.6 320c-7.68 0-12.8 5.12-12.8 12.8v102.4c0 7.68 5.12 12.8 12.8 12.8s12.8-5.12 12.8-12.8v-102.4c0-7.68-5.12-12.8-12.8-12.8zM614.4 320c-7.68 0-12.8 5.12-12.8 12.8v102.4c0 7.68 5.12 12.8 12.8 12.8s12.8-5.12 12.8-12.8v-102.4c0-7.68-5.12-12.8-12.8-12.8z"  horiz-adv-x="1024" />

    
    <glyph glyph-name="__power" unicode="&#58936;" d="M512 176.64c-104.96 0-192 87.04-192 192 0 69.12 38.4 133.12 99.84 168.96 5.12 2.56 12.8 0 17.92-5.12 2.56-5.12 0-12.8-5.12-17.92-53.76-28.16-87.04-84.48-87.04-145.92 0-92.16 74.24-166.4 166.4-166.4s166.4 74.24 166.4 166.4c0 61.44-33.28 115.2-87.04 145.92-5.12 2.56-7.68 10.24-5.12 17.92 2.56 5.12 10.24 7.68 17.92 5.12 61.44-33.28 99.84-97.28 99.84-168.96 0-104.96-87.04-192-192-192zM512 437.76c-7.68 0-12.8 5.12-12.8 12.8v128c0 7.68 5.12 12.8 12.8 12.8s12.8-5.12 12.8-12.8v-128c0-7.68-5.12-12.8-12.8-12.8z"  horiz-adv-x="1024" />

    
    <glyph glyph-name="__flag" unicode="&#58937;" d="M414.72 227.84h-64c-7.68 0-12.8 5.12-12.8 12.8s5.12 12.8 12.8 12.8h64c7.68 0 12.8-5.12 12.8-12.8s-5.12-12.8-12.8-12.8zM458.24 179.2H307.2c-7.68 0-12.8 5.12-12.8 12.8s5.12 12.8 12.8 12.8h151.04c7.68 0 12.8-5.12 12.8-12.8s-7.68-12.8-12.8-12.8zM396.8 240.64v138.24c12.8 5.12 38.4 17.92 71.68 17.92 43.52 0 76.8-20.48 76.8-20.48 2.56 0 40.96-23.04 89.6-23.04s89.6 23.04 89.6 23.04c2.56 2.56 5.12 5.12 5.12 7.68 0 2.56 0 7.68-2.56 10.24l-43.52 61.44 43.52 92.16c2.56 5.12 0 10.24-2.56 15.36-5.12 2.56-10.24 5.12-15.36 2.56 0 0-33.28-20.48-76.8-20.48s-76.8 20.48-76.8 20.48c-2.56 0-40.96 23.04-89.6 23.04s-89.6-23.04-89.6-23.04c-2.56-2.56-5.12-7.68-5.12-10.24v-312.32h25.6z m235.52 138.24c-43.52 0-76.8 20.48-76.8 20.48-2.56 0-40.96 23.04-89.6 23.04-28.16 0-53.76-7.68-71.68-15.36v138.24c12.8 5.12 38.4 17.92 71.68 17.92 43.52 0 76.8-20.48 76.8-20.48 2.56 0 40.96-23.04 89.6-23.04 23.04 0 40.96 5.12 56.32 10.24L657.92 460.8c-2.56-5.12-2.56-10.24 0-12.8l38.4-56.32c-12.8-5.12-35.84-12.8-64-12.8z"  horiz-adv-x="1024" />

    
    <glyph glyph-name="__signal" unicode="&#58938;" d="M460.8 217.6c-7.68 0-12.8 5.12-12.8 12.8v153.6c0 7.68 5.12 12.8 12.8 12.8s12.8-5.12 12.8-12.8v-153.6c0-7.68-5.12-12.8-12.8-12.8zM563.2 217.6c-7.68 0-12.8 5.12-12.8 12.8v230.4c0 7.68 5.12 12.8 12.8 12.8s12.8-5.12 12.8-12.8v-230.4c0-7.68-5.12-12.8-12.8-12.8zM665.6 217.6c-7.68 0-12.8 5.12-12.8 12.8V537.6c0 7.68 5.12 12.8 12.8 12.8s12.8-5.12 12.8-12.8v-307.2c0-7.68-5.12-12.8-12.8-12.8zM358.4 217.6c-7.68 0-12.8 5.12-12.8 12.8v76.8c0 7.68 5.12 12.8 12.8 12.8s12.8-5.12 12.8-12.8v-76.8c0-7.68-5.12-12.8-12.8-12.8z"  horiz-adv-x="1024" />

    
    <glyph glyph-name="__basketball" unicode="&#58939;" d="M512 166.4c-58.88 0-112.64 23.04-153.6 64-84.48 84.48-84.48 222.72 0 307.2 40.96 40.96 94.72 64 153.6 64s112.64-23.04 153.6-64c84.48-84.48 84.48-222.72 0-307.2-40.96-40.96-94.72-64-153.6-64z m0 409.6c-51.2 0-99.84-20.48-135.68-56.32-74.24-74.24-74.24-197.12 0-271.36 35.84-35.84 84.48-56.32 135.68-56.32s99.84 20.48 135.68 56.32c74.24 74.24 74.24 197.12 0 271.36-35.84 35.84-84.48 56.32-135.68 56.32zM358.144 248.2432L647.7312 537.856l18.0992-18.0992L376.2176 230.144zM314.88 437.76c40.96-12.8 87.04-2.56 115.2 28.16 30.72 30.72 40.96 74.24 28.16 115.2l25.6 7.68c15.36-51.2 2.56-104.96-33.28-140.8-25.6-25.6-61.44-40.96-99.84-40.96-15.36 0-28.16 2.56-43.52 7.68l7.68 23.04zM540.16 179.2c-15.36 51.2-2.56 104.96 33.28 140.8 35.84 35.84 92.16 51.2 140.8 33.28l-7.68-25.6c-40.96 12.8-87.04 2.56-115.2-28.16s-40.96-74.24-28.16-115.2l-23.04-5.12zM376.2432 537.856L665.856 248.2688l-18.0992-18.0992L358.144 519.7824z"  horiz-adv-x="1024" />

    
    <glyph glyph-name="__wifi" unicode="&#58940;" d="M716.8 430.08c-2.56 0-7.68 0-10.24 2.56-51.2 51.2-122.88 81.92-194.56 81.92S368.64 486.4 317.44 435.2c-5.12-5.12-12.8-5.12-17.92 0s-5.12 12.8 0 17.92c56.32 56.32 133.12 89.6 215.04 89.6s156.16-30.72 215.04-89.6c5.12-5.12 5.12-12.8 0-17.92-5.12-2.56-10.24-5.12-12.8-5.12zM647.68 363.52c-2.56 0-7.68 0-10.24 2.56-69.12 69.12-184.32 69.12-256 0-5.12-5.12-12.8-5.12-17.92 0s-5.12 12.8 0 17.92c79.36 79.36 209.92 79.36 291.84 0 5.12-5.12 5.12-12.8 0-17.92 0-2.56-2.56-2.56-7.68-2.56zM581.12 294.4c-2.56 0-7.68 0-10.24 2.56-33.28 33.28-87.04 33.28-117.76 0-5.12-5.12-12.8-5.12-17.92 0s-5.12 12.8 0 17.92c43.52 43.52 112.64 43.52 153.6 0 5.12-5.12 5.12-12.8 0-17.92-2.56 0-5.12-2.56-7.68-2.56zM512 225.28c-2.56 0-7.68 2.56-10.24 5.12-2.56 2.56-2.56 5.12-2.56 7.68s0 7.68 2.56 10.24c5.12 5.12 12.8 5.12 17.92 0 2.56-2.56 5.12-5.12 5.12-10.24s-2.56-7.68-2.56-7.68c-2.56-2.56-7.68-5.12-10.24-5.12z"  horiz-adv-x="1024" />

    
    <glyph glyph-name="__telephone" unicode="&#58941;" d="M601.6 166.4c-23.04 0-46.08 7.68-64 20.48-53.76 38.4-89.6 71.68-120.32 102.4-30.72 30.72-64 66.56-102.4 120.32-38.4 51.2-23.04 117.76 35.84 179.2 17.92 17.92 48.64 17.92 66.56 0l35.84-35.84c7.68-7.68 12.8-20.48 12.8-33.28s-5.12-25.6-12.8-33.28l-15.36-15.36c-5.12-5.12-2.56-12.8 0-17.92 17.92-23.04 48.64-56.32 66.56-71.68 17.92-17.92 48.64-48.64 71.68-66.56 5.12-5.12 12.8-5.12 17.92 0l15.36 15.36c17.92 17.92 48.64 17.92 66.56 0l35.84-35.84c7.68-7.68 12.8-20.48 12.8-33.28s-5.12-25.6-12.8-33.28c-33.28-40.96-71.68-61.44-110.08-61.44z m-217.6 409.6c-5.12 0-10.24-2.56-15.36-5.12-51.2-51.2-61.44-104.96-33.28-145.92 38.4-53.76 69.12-87.04 99.84-117.76 30.72-30.72 64-61.44 117.76-99.84 40.96-28.16 94.72-17.92 145.92 33.28 5.12 5.12 5.12 10.24 5.12 15.36 0 5.12-2.56 10.24-5.12 15.36L660.48 307.2c-7.68 7.68-23.04 7.68-30.72 0l-15.36-15.36c-12.8-12.8-33.28-12.8-51.2 0-25.6 17.92-56.32 51.2-74.24 69.12-17.92 17.92-51.2 51.2-69.12 74.24-12.8 17.92-12.8 38.4 0 51.2l15.36 15.36c5.12 5.12 5.12 10.24 5.12 15.36 0 5.12-2.56 10.24-5.12 15.36l-35.84 35.84c-5.12 5.12-10.24 7.68-15.36 7.68z"  horiz-adv-x="1024" />

    
    <glyph glyph-name="__lifebuoy" unicode="&#58942;" d="M594.3296 446.3104l88.6784 51.2 12.8-22.1696-88.6784-51.2zM625.5872 554.368l-51.2-88.6784-22.144 12.8 51.2 88.6784zM607.0784 343.7312l88.6784-51.2-12.8-22.1952-88.6784 51.2zM574.2848 301.696l51.2-88.6784-22.1696-12.8-51.2 88.6784zM341.0688 497.664l88.6784-51.2-12.8-22.1696-88.6784 51.2zM420.8128 567.808l51.2-88.6528-22.1696-12.8-51.2 88.6784zM471.9104 289.408l-51.1744-88.704-22.1696 12.8 51.2 88.704zM429.9776 321.664l-88.6784-51.2-12.8 22.1696 88.6784 51.2zM512 166.4c-76.8 0-151.04 40.96-189.44 110.08-28.16 51.2-35.84 110.08-23.04 166.4 15.36 56.32 51.2 102.4 102.4 133.12 33.28 17.92 71.68 28.16 107.52 28.16 76.8 0 151.04-40.96 189.44-110.08 58.88-104.96 25.6-238.08-79.36-296.96-30.72-20.48-69.12-30.72-107.52-30.72z m0 409.6c-33.28 0-66.56-7.68-94.72-25.6-43.52-25.6-76.8-66.56-89.6-117.76s-7.68-102.4 20.48-145.92c33.28-58.88 97.28-97.28 166.4-97.28 33.28 0 66.56 7.68 94.72 25.6 92.16 53.76 122.88 171.52 69.12 261.12-33.28 64-97.28 99.84-166.4 99.84zM512 268.8c-40.96 0-79.36 23.04-99.84 58.88-30.72 53.76-12.8 125.44 40.96 156.16 17.92 10.24 38.4 15.36 56.32 15.36 40.96 0 79.36-23.04 99.84-58.88 30.72-53.76 12.8-125.44-40.96-156.16-15.36-10.24-35.84-15.36-56.32-15.36z m0 204.8c-15.36 0-30.72-5.12-43.52-12.8-43.52-25.6-56.32-79.36-33.28-122.88 15.36-28.16 46.08-46.08 76.8-46.08 15.36 0 30.72 5.12 43.52 12.8 43.52 25.6 56.32 79.36 33.28 122.88-15.36 28.16-46.08 46.08-76.8 46.08z"  horiz-adv-x="1024" />

    
    <glyph glyph-name="__alarm" unicode="&#58943;" d="M512 204.8c-92.16 0-166.4 74.24-166.4 166.4S419.84 537.6 512 537.6s166.4-74.24 166.4-166.4S604.16 204.8 512 204.8z m0 307.2c-76.8 0-140.8-64-140.8-140.8S435.2 230.4 512 230.4s140.8 64 140.8 140.8S588.8 512 512 512zM570.88 358.4H537.6c-20.48 0-38.4 17.92-38.4 38.4v46.08c0 7.68 5.12 12.8 12.8 12.8s12.8-5.12 12.8-12.8v-46.08c0-7.68 5.12-12.8 12.8-12.8h33.28c7.68 0 12.8-5.12 12.8-12.8s-7.68-12.8-12.8-12.8zM706.56 481.28c-5.12 0-7.68 2.56-10.24 5.12-17.92 30.72-43.52 56.32-74.24 71.68-5.12 2.56-7.68 10.24-5.12 17.92 2.56 5.12 10.24 7.68 17.92 5.12 33.28-20.48 61.44-48.64 81.92-81.92 2.56-5.12 2.56-12.8-5.12-17.92h-5.12zM317.44 481.28c-2.56 0-5.12 0-7.68 2.56-5.12 2.56-7.68 12.8-5.12 17.92 20.48 33.28 48.64 61.44 81.92 81.92 5.12 2.56 12.8 2.56 17.92-5.12 2.56-5.12 2.56-12.8-5.12-17.92-30.72-17.92-56.32-43.52-74.24-71.68 0-5.12-5.12-7.68-7.68-7.68zM432.64 238.08L384 189.44c-2.56-2.56-5.12-2.56-10.24-2.56s-7.68 0-10.24 2.56c-5.12 5.12-5.12 12.8 0 17.92l48.64 48.64 20.48-17.92zM609.28 256l48.64-48.64c5.12-5.12 5.12-12.8 0-17.92-2.56-2.56-5.12-2.56-10.24-2.56s-7.68 0-10.24 2.56L588.8 238.08l20.48 17.92z"  horiz-adv-x="1024" />

    
    <glyph glyph-name="__telephonedirec" unicode="&#58944;" d="M629.76 166.4h-209.92c-33.28 0-61.44 28.16-61.44 61.44V540.16c0 33.28 28.16 61.44 61.44 61.44h209.92c33.28 0 61.44-28.16 61.44-61.44v-312.32c0-33.28-28.16-61.44-61.44-61.44z m-209.92 409.6c-20.48 0-35.84-15.36-35.84-35.84v-312.32c0-20.48 15.36-35.84 35.84-35.84h209.92c20.48 0 35.84 15.36 35.84 35.84V540.16c0 20.48-15.36 35.84-35.84 35.84h-209.92zM396.8 473.6h-51.2c-7.68 0-12.8 5.12-12.8 12.8s5.12 12.8 12.8 12.8h51.2c7.68 0 12.8-5.12 12.8-12.8s-5.12-12.8-12.8-12.8zM396.8 337.92h-51.2c-7.68 0-12.8 5.12-12.8 12.8s5.12 12.8 12.8 12.8h51.2c7.68 0 12.8-5.12 12.8-12.8s-5.12-12.8-12.8-12.8zM396.8 268.8h-51.2c-7.68 0-12.8 5.12-12.8 12.8s5.12 12.8 12.8 12.8h51.2c7.68 0 12.8-5.12 12.8-12.8s-5.12-12.8-12.8-12.8zM396.8 404.48h-51.2c-7.68 0-12.8 5.12-12.8 12.8s5.12 12.8 12.8 12.8h51.2c7.68 0 12.8-5.12 12.8-12.8s-5.12-12.8-12.8-12.8zM547.84 366.08c-25.6 0-46.08 23.04-46.08 51.2s20.48 51.2 46.08 51.2 46.08-23.04 46.08-51.2-20.48-51.2-46.08-51.2z m0 74.24c-10.24 0-20.48-10.24-20.48-25.6s10.24-25.6 20.48-25.6 20.48 10.24 20.48 25.6-7.68 25.6-20.48 25.6zM565.76 394.24h2.56c28.16 0 48.64-23.04 48.64-48.64v-30.72c0-7.68-5.12-12.8-12.8-12.8s-12.8 5.12-12.8 12.8v30.72c0 12.8-10.24 23.04-23.04 23.04h-2.56v25.6zM532.48 368.64h-2.56c-12.8 0-23.04-10.24-23.04-23.04v-30.72c0-7.68-5.12-12.8-12.8-12.8s-12.8 5.12-12.8 12.8v30.72c0 28.16 23.04 48.64 48.64 48.64h2.56v-25.6zM419.84 588.8h25.6v-409.6h-25.6z"  horiz-adv-x="1024" />

    
    <glyph glyph-name="__clock" unicode="&#58945;" d="M512 166.4c-120.32 0-217.6 97.28-217.6 217.6s97.28 217.6 217.6 217.6 217.6-97.28 217.6-217.6-97.28-217.6-217.6-217.6z m0 409.6c-104.96 0-192-87.04-192-192s87.04-192 192-192 192 87.04 192 192-87.04 192-192 192zM563.2 371.2h-35.84c-15.36 0-28.16 12.8-28.16 28.16V486.4c0 7.68 5.12 12.8 12.8 12.8s12.8-5.12 12.8-12.8v-87.04c0-2.56 2.56-2.56 2.56-2.56H563.2c7.68 0 12.8-5.12 12.8-12.8s-5.12-12.8-12.8-12.8zM512 524.8c-7.68 0-12.8 5.12-12.8 12.8v38.4c0 7.68 5.12 12.8 12.8 12.8s12.8-5.12 12.8-12.8V537.6c0-7.68-5.12-12.8-12.8-12.8zM704 371.2H665.6c-7.68 0-12.8 5.12-12.8 12.8s5.12 12.8 12.8 12.8h38.4c7.68 0 12.8-5.12 12.8-12.8s-5.12-12.8-12.8-12.8zM358.4 371.2h-38.4c-7.68 0-12.8 5.12-12.8 12.8s5.12 12.8 12.8 12.8H358.4c7.68 0 12.8-5.12 12.8-12.8s-5.12-12.8-12.8-12.8zM512 179.2c-7.68 0-12.8 5.12-12.8 12.8V230.4c0 7.68 5.12 12.8 12.8 12.8s12.8-5.12 12.8-12.8v-38.4c0-7.68-5.12-12.8-12.8-12.8z"  horiz-adv-x="1024" />

    
    <glyph glyph-name="__calendar" unicode="&#58946;" d="M652.8 192h-281.6c-35.84 0-64 28.16-64 64v230.4c0 35.84 28.16 64 64 64h281.6c35.84 0 64-28.16 64-64v-230.4c0-35.84-28.16-64-64-64z m-281.6 332.8c-20.48 0-38.4-17.92-38.4-38.4v-230.4c0-20.48 17.92-38.4 38.4-38.4h281.6c20.48 0 38.4 17.92 38.4 38.4v230.4c0 20.48-17.92 38.4-38.4 38.4h-281.6zM435.2 499.2c-7.68 0-12.8 5.12-12.8 12.8v51.2c0 7.68 5.12 12.8 12.8 12.8s12.8-5.12 12.8-12.8v-51.2c0-7.68-5.12-12.8-12.8-12.8zM588.8 499.2c-7.68 0-12.8 5.12-12.8 12.8v51.2c0 7.68 5.12 12.8 12.8 12.8s12.8-5.12 12.8-12.8v-51.2c0-7.68-5.12-12.8-12.8-12.8zM691.2 422.4H332.8c-7.68 0-12.8 5.12-12.8 12.8s5.12 12.8 12.8 12.8h358.4c7.68 0 12.8-5.12 12.8-12.8s-5.12-12.8-12.8-12.8zM396.8 256c-7.68 0-12.8 2.56-17.92 7.68-5.12 5.12-7.68 12.8-7.68 17.92 0 7.68 2.56 12.8 7.68 17.92 10.24 10.24 25.6 10.24 35.84 0 5.12-5.12 7.68-12.8 7.68-17.92s-2.56-12.8-7.68-17.92c-5.12-5.12-10.24-7.68-17.92-7.68zM396.8 332.8c-7.68 0-12.8 2.56-17.92 7.68-5.12 5.12-7.68 10.24-7.68 17.92 0 7.68 2.56 12.8 7.68 17.92 10.24 10.24 25.6 10.24 35.84 0 5.12-5.12 7.68-12.8 7.68-17.92s-2.56-12.8-7.68-17.92c-5.12-5.12-10.24-7.68-17.92-7.68zM473.6 256c-7.68 0-12.8 2.56-17.92 7.68-5.12 5.12-7.68 12.8-7.68 17.92s2.56 12.8 7.68 17.92c10.24 10.24 25.6 10.24 35.84 0 5.12-5.12 7.68-12.8 7.68-17.92s-2.56-12.8-7.68-17.92c-5.12-5.12-10.24-7.68-17.92-7.68zM473.6 332.8c-7.68 0-12.8 2.56-17.92 7.68-5.12 5.12-7.68 12.8-7.68 17.92s2.56 12.8 7.68 17.92c10.24 10.24 25.6 10.24 35.84 0 5.12-5.12 7.68-12.8 7.68-17.92s-2.56-12.8-7.68-17.92c-5.12-5.12-10.24-7.68-17.92-7.68zM550.4 256c-7.68 0-12.8 2.56-17.92 7.68-5.12 5.12-7.68 12.8-7.68 17.92s2.56 12.8 7.68 17.92c10.24 10.24 25.6 10.24 35.84 0 5.12-5.12 7.68-10.24 7.68-17.92 0-7.68-2.56-12.8-7.68-17.92-5.12-5.12-10.24-7.68-17.92-7.68zM550.4 332.8c-7.68 0-12.8 2.56-17.92 7.68-5.12 5.12-7.68 12.8-7.68 17.92s2.56 12.8 7.68 17.92c10.24 10.24 25.6 10.24 35.84 0 5.12-5.12 7.68-12.8 7.68-17.92 0-7.68-2.56-12.8-7.68-17.92-5.12-5.12-10.24-7.68-17.92-7.68zM627.2 256c-7.68 0-12.8 2.56-17.92 7.68-5.12 5.12-7.68 12.8-7.68 17.92 0 7.68 2.56 12.8 7.68 17.92 10.24 10.24 25.6 10.24 35.84 0 5.12-5.12 7.68-12.8 7.68-17.92s-2.56-12.8-7.68-17.92c-5.12-5.12-10.24-7.68-17.92-7.68zM627.2 332.8c-7.68 0-12.8 2.56-17.92 7.68-5.12 5.12-7.68 12.8-7.68 17.92s2.56 12.8 7.68 17.92c10.24 10.24 25.6 10.24 35.84 0 5.12-5.12 7.68-12.8 7.68-17.92 0-7.68-2.56-12.8-7.68-17.92-5.12-5.12-10.24-7.68-17.92-7.68z"  horiz-adv-x="1024" />

    
    <glyph glyph-name="__hourglass" unicode="&#58947;" d="M560.64 235.52H460.8c-7.68 0-12.8 5.12-12.8 12.8s5.12 12.8 12.8 12.8h99.84c7.68 0 12.8-5.12 12.8-12.8s-5.12-12.8-12.8-12.8zM647.68 166.4H376.32c-15.36 0-30.72 12.8-30.72 30.72V230.4c0 15.36 12.8 30.72 30.72 30.72h7.68c7.68 46.08 38.4 87.04 61.44 117.76l2.56 5.12-2.56 5.12c-23.04 30.72-53.76 71.68-61.44 117.76h-7.68c-15.36 0-30.72 12.8-30.72 30.72v33.28c0 15.36 12.8 30.72 30.72 30.72h273.92c15.36 0 30.72-12.8 30.72-30.72V537.6c0-15.36-12.8-30.72-30.72-30.72H640c-7.68-46.08-38.4-87.04-61.44-117.76l-2.56-5.12 2.56-5.12c23.04-30.72 53.76-71.68 61.44-117.76h7.68c15.36 0 30.72-12.8 30.72-30.72v-33.28c0-17.92-12.8-30.72-30.72-30.72z m-271.36 69.12c-2.56 0-5.12-2.56-5.12-5.12v-33.28c0-2.56 2.56-5.12 5.12-5.12h273.92c2.56 0 5.12 2.56 5.12 5.12V230.4c0 2.56-2.56 5.12-5.12 5.12h-17.92c-7.68 0-12.8 5.12-12.8 12.8-2.56 46.08-35.84 87.04-56.32 117.76l-10.24 12.8c-2.56 5.12-2.56 10.24 0 15.36l10.24 12.8c23.04 30.72 53.76 71.68 56.32 117.76 0 7.68 5.12 12.8 12.8 12.8h17.92c2.56 0 5.12 2.56 5.12 5.12v33.28c0 2.56-2.56 5.12-5.12 5.12H376.32c-2.56 0-5.12-2.56-5.12-5.12V537.6c0-2.56 2.56-5.12 5.12-5.12h17.92c7.68 0 12.8-5.12 12.8-12.8 2.56-46.08 35.84-87.04 56.32-117.76l10.24-12.8c2.56-5.12 2.56-10.24 0-15.36l-10.24-12.8c-23.04-30.72-53.76-71.68-56.32-117.76 0-7.68-5.12-12.8-12.8-12.8h-17.92z"  horiz-adv-x="1024" />

    
    <glyph glyph-name="__hyperlink" unicode="&#58948;" d="M422.4 192c-25.6 0-53.76 10.24-74.24 30.72-20.48 20.48-30.72 46.08-30.72 74.24 0 28.16 10.24 53.76 30.72 74.24l48.64 48.64c5.12 5.12 12.8 5.12 17.92 0s5.12-12.8 0-17.92l-48.64-48.64c-15.36-15.36-23.04-33.28-23.04-56.32s7.68-40.96 23.04-56.32c30.72-30.72 81.92-30.72 110.08 0l48.64 48.64c5.12 5.12 12.8 5.12 17.92 0s5.12-12.8 0-17.92l-48.64-48.64c-17.92-20.48-43.52-30.72-71.68-30.72zM616.96 348.16c-2.56 0-7.68 0-10.24 2.56-5.12 5.12-5.12 12.8 0 17.92l48.64 48.64c30.72 30.72 30.72 79.36 0 110.08-30.72 30.72-79.36 30.72-110.08 0l-48.64-48.64c-5.12-5.12-12.8-5.12-17.92 0s-5.12 12.8 0 17.92l48.64 48.64c40.96 40.96 104.96 40.96 145.92 0 40.96-40.96 40.96-104.96 0-145.92l-48.64-48.64c-2.56-2.56-5.12-2.56-7.68-2.56zM422.4 281.6c-2.56 0-7.68 0-10.24 2.56-5.12 5.12-5.12 12.8 0 17.92l176.64 176.64c5.12 5.12 12.8 5.12 17.92 0s5.12-12.8 0-17.92l-176.64-176.64s-2.56-2.56-7.68-2.56z"  horiz-adv-x="1024" />

    
    <glyph glyph-name="__hyperlink1" unicode="&#58949;" d="M422.4 192c-25.6 0-53.76 10.24-74.24 30.72-20.48 20.48-30.72 46.08-30.72 74.24 0 28.16 10.24 53.76 30.72 74.24l48.64 48.64c5.12 5.12 12.8 5.12 17.92 0s5.12-12.8 0-17.92l-48.64-48.64c-15.36-15.36-23.04-33.28-23.04-56.32s7.68-40.96 23.04-56.32c30.72-30.72 81.92-30.72 110.08 0l48.64 48.64c5.12 5.12 12.8 5.12 17.92 0s5.12-12.8 0-17.92l-48.64-48.64c-17.92-20.48-43.52-30.72-71.68-30.72zM616.96 348.16c-2.56 0-7.68 0-10.24 2.56-5.12 5.12-5.12 12.8 0 17.92l48.64 48.64c30.72 30.72 30.72 79.36 0 110.08-30.72 30.72-79.36 30.72-110.08 0l-48.64-48.64c-5.12-5.12-12.8-5.12-17.92 0s-5.12 12.8 0 17.92l48.64 48.64c40.96 40.96 104.96 40.96 145.92 0 40.96-40.96 40.96-104.96 0-145.92l-48.64-48.64c-2.56-2.56-5.12-2.56-7.68-2.56z"  horiz-adv-x="1024" />

    
    <glyph glyph-name="__earth" unicode="&#58950;" d="M512 166.4c-120.32 0-217.6 97.28-217.6 217.6s97.28 217.6 217.6 217.6 217.6-97.28 217.6-217.6-97.28-217.6-217.6-217.6z m0 409.6c-104.96 0-192-87.04-192-192s87.04-192 192-192 192 87.04 192 192-87.04 192-192 192zM512 179.2c-7.68 0-12.8 5.12-12.8 12.8v384c0 7.68 5.12 12.8 12.8 12.8s12.8-5.12 12.8-12.8v-386.56c0-5.12-5.12-10.24-12.8-10.24zM704 371.2h-384c-7.68 0-12.8 5.12-12.8 12.8s5.12 12.8 12.8 12.8h386.56c7.68 0 12.8-5.12 12.8-12.8s-7.68-12.8-15.36-12.8zM486.4 171.52c-58.88 20.48-102.4 107.52-102.4 212.48 0 107.52 43.52 194.56 102.4 212.48l38.4-7.68c0-7.68-5.12-12.8-12.8-12.8-56.32 0-102.4-87.04-102.4-192s46.08-192 102.4-192c7.68 0 12.8-5.12 12.8-12.8l-38.4-7.68zM499.2 179.2c0 7.68 5.12 12.8 12.8 12.8 56.32 0 102.4 87.04 102.4 192s-46.08 192-102.4 192c-7.68 0-12.8 5.12-12.8 12.8l33.28 10.24c61.44-15.36 107.52-104.96 107.52-215.04 0-107.52-43.52-194.56-102.4-212.48l-38.4 7.68z"  horiz-adv-x="1024" />

    
    <glyph glyph-name="__focus" unicode="&#58951;" d="M512 217.6c-92.16 0-166.4 74.24-166.4 166.4s74.24 166.4 166.4 166.4 166.4-74.24 166.4-166.4-74.24-166.4-166.4-166.4z m0 307.2c-76.8 0-140.8-64-140.8-140.8s64-140.8 140.8-140.8 140.8 64 140.8 140.8-64 140.8-140.8 140.8zM512 473.6c-7.68 0-12.8 5.12-12.8 12.8v102.4c0 7.68 5.12 12.8 12.8 12.8s12.8-5.12 12.8-12.8v-102.4c0-7.68-5.12-12.8-12.8-12.8zM512 166.4c-7.68 0-12.8 5.12-12.8 12.8v102.4c0 7.68 5.12 12.8 12.8 12.8s12.8-5.12 12.8-12.8v-102.4c0-7.68-5.12-12.8-12.8-12.8zM716.8 371.2h-102.4c-7.68 0-12.8 5.12-12.8 12.8s5.12 12.8 12.8 12.8h102.4c7.68 0 12.8-5.12 12.8-12.8s-5.12-12.8-12.8-12.8zM409.6 371.2h-102.4c-7.68 0-12.8 5.12-12.8 12.8s5.12 12.8 12.8 12.8h102.4c7.68 0 12.8-5.12 12.8-12.8s-5.12-12.8-12.8-12.8z"  horiz-adv-x="1024" />

    
    <glyph glyph-name="__planet" unicode="&#58952;" d="M340.48 322.56c-5.12 0-10.24 2.56-12.8 10.24-5.12 17.92-7.68 35.84-7.68 53.76 0 104.96 87.04 192 192 192 17.92 0 35.84-2.56 53.76-7.68 7.68-2.56 10.24-10.24 7.68-15.36-2.56-7.68-10.24-10.24-15.36-7.68-15.36 5.12-30.72 7.68-46.08 7.68-92.16 0-166.4-74.24-166.4-166.4 0-15.36 2.56-30.72 7.68-46.08 2.56-7.68-2.56-12.8-7.68-15.36-2.56-5.12-5.12-5.12-5.12-5.12zM496.64 217.6h15.36c92.16 0 166.4 74.24 166.4 166.4v15.36l7.68 48.64c5.12 0 10.24-5.12 10.24-10.24 5.12-17.92 7.68-35.84 7.68-53.76 0-104.96-87.04-192-192-192-17.92 0-35.84 2.56-53.76 7.68-5.12 2.56-7.68 5.12-10.24 10.24l48.64 7.68zM363.52 166.4c-20.48 0-38.4 5.12-48.64 17.92-28.16 28.16-23.04 84.48 15.36 156.16 2.56 5.12 7.68 7.68 12.8 7.68s10.24-5.12 10.24-10.24c15.36-53.76 58.88-97.28 112.64-112.64 5.12-2.56 7.68-5.12 10.24-10.24 0-5.12-2.56-10.24-7.68-12.8-40.96-23.04-76.8-35.84-104.96-35.84z m-25.6 135.68c-20.48-46.08-23.04-84.48-7.68-99.84 15.36-15.36 53.76-12.8 99.84 7.68-40.96 20.48-71.68 51.2-92.16 92.16zM683.52 419.84c-7.68 0-10.24 5.12-12.8 10.24-15.36 53.76-58.88 97.28-112.64 112.64-5.12 2.56-7.68 5.12-10.24 10.24 0 5.12 2.56 10.24 7.68 12.8 69.12 38.4 128 43.52 156.16 15.36 28.16-28.16 23.04-84.48-15.36-156.16-2.56-2.56-7.68-5.12-12.8-5.12z m-89.6 138.24c40.96-17.92 74.24-51.2 92.16-92.16 20.48 46.08 23.04 84.48 7.68 99.84-17.92 15.36-53.76 12.8-99.84-7.68zM696.32 437.76v-10.24c-23.04-43.52-58.88-87.04-99.84-128s-84.48-74.24-128-99.84c-2.56 0-5.12-2.56-5.12-2.56H460.8l2.56 25.6a617.088 617.088 0 0 1 209.92 209.92l23.04 5.12z"  horiz-adv-x="1024" />

    
    <glyph glyph-name="__navigation" unicode="&#58953;" d="M535.04 166.4c-20.48 0-38.4 15.36-43.52 35.84l-20.48 125.44c0 7.68-7.68 12.8-15.36 15.36l-125.44 20.48c-20.48 2.56-33.28 17.92-35.84 38.4-2.56 20.48 7.68 38.4 28.16 43.52l322.56 125.44c17.92 7.68 40.96 0 51.2-15.36 7.68-12.8 10.24-25.6 5.12-40.96l-125.44-322.56c-7.68-15.36-23.04-25.6-40.96-25.6z m125.44 384h-7.68l-322.56-125.44c-10.24-2.56-12.8-12.8-10.24-17.92 0-5.12 5.12-12.8 15.36-15.36l125.44-20.48c17.92-2.56 33.28-17.92 35.84-35.84l20.48-125.44c2.56-10.24 10.24-15.36 17.92-15.36 2.56 0 12.8 0 15.36 10.24l125.44 322.56c2.56 7.68 0 12.8-2.56 15.36 0 5.12-7.68 7.68-12.8 7.68zM465.92 355.84l194.56 194.56c5.12 5.12 12.8 5.12 17.92 0s5.12-12.8 0-17.92l-194.56-194.56-17.92 17.92z"  horiz-adv-x="1024" />

    
    <glyph glyph-name="__coordinates" unicode="&#58954;" d="M512 153.6c-12.8 0-25.6 7.68-33.28 20.48L371.2 358.4c-46.08 79.36-23.04 184.32 53.76 230.4 25.6 15.36 56.32 25.6 87.04 25.6 58.88 0 115.2-30.72 143.36-84.48 28.16-51.2 30.72-112.64 0-163.84v-2.56l-110.08-192c-7.68-10.24-20.48-17.92-33.28-17.92z m0 435.2c-25.6 0-51.2-7.68-74.24-20.48-64-38.4-84.48-128-43.52-194.56l107.52-186.88c2.56-7.68 7.68-7.68 10.24-7.68 2.56 0 7.68 0 10.24 7.68l110.08 189.44v2.56c25.6 43.52 25.6 97.28 0 140.8C609.28 560.64 563.2 588.8 512 588.8zM512 384c-35.84 0-64 28.16-64 64S476.16 512 512 512s64-28.16 64-64S547.84 384 512 384z m0 102.4c-20.48 0-38.4-17.92-38.4-38.4S491.52 409.6 512 409.6s38.4 17.92 38.4 38.4S532.48 486.4 512 486.4z"  horiz-adv-x="1024" />

    
    <glyph glyph-name="__pin" unicode="&#58955;" d="M509.44 174.08c-2.56 0-7.68 2.56-10.24 2.56l-194.56 194.56c-5.12 5.12-5.12 12.8 0 17.92 30.72 30.72 79.36 38.4 117.76 20.48l102.4 102.4c-7.68 7.68-12.8 20.48-12.8 30.72s5.12 23.04 12.8 30.72l5.12 5.12c17.92 17.92 46.08 17.92 61.44 0l117.76-117.76c7.68-7.68 12.8-20.48 12.8-30.72s-5.12-20.48-12.8-28.16l-5.12-5.12c-17.92-17.92-46.08-17.92-61.44 0l-102.4-102.4c17.92-38.4 10.24-87.04-20.48-117.76-5.12-2.56-7.68-2.56-10.24-2.56z m-176.64 204.8l174.08-174.08c17.92 25.6 20.48 58.88 2.56 84.48-2.56 5.12-2.56 10.24 2.56 15.36l120.32 120.32c5.12 5.12 12.8 5.12 17.92 0l10.24-10.24c7.68-7.68 20.48-7.68 25.6 0l5.12 5.12c2.56 2.56 5.12 7.68 5.12 12.8s-2.56 10.24-5.12 12.8L573.44 563.2c-7.68 7.68-20.48 7.68-25.6 0l-5.12-5.12c-2.56-2.56-5.12-7.68-5.12-12.8s2.56-10.24 5.12-12.8l10.24-10.24c5.12-5.12 5.12-12.8 0-17.92L435.2 386.56c-5.12-5.12-10.24-5.12-15.36-2.56-28.16 15.36-61.44 12.8-87.04-5.12zM419.84 273.92l-84.48-84.48c-2.56-2.56-5.12-2.56-10.24-2.56s-7.68 0-10.24 2.56c-5.12 5.12-5.12 12.8 0 17.92l84.48 84.48 20.48-17.92z"  horiz-adv-x="1024" />

    
    <glyph glyph-name="__plane" unicode="&#58956;" d="M588.8 179.2c-10.24 0-17.92 5.12-23.04 15.36L512 325.12l-61.44-53.76 10.24-30.72v-5.12c0-15.36-12.8-25.6-28.16-25.6-7.68 0-15.36 2.56-20.48 7.68l-66.56 66.56c-7.68 7.68-10.24 20.48-7.68 30.72 5.12 10.24 12.8 17.92 25.6 17.92h5.12l30.72-10.24 53.76 61.44-130.56 53.76c-7.68 2.56-12.8 10.24-15.36 17.92s0 15.36 7.68 23.04l15.36 15.36c5.12 5.12 10.24 7.68 17.92 7.68l197.12-20.48 64 64c25.6 25.6 61.44 40.96 97.28 43.52 2.56 0 7.68 0 10.24-2.56 2.56-2.56 5.12-5.12 2.56-10.24-2.56-35.84-17.92-71.68-43.52-97.28l-64-64 20.48-194.56c0-7.68-2.56-15.36-7.68-20.48l-15.36-15.36c-7.68-2.56-15.36-5.12-20.48-5.12z m-76.8 171.52c10.24 0 20.48-5.12 23.04-15.36l53.76-128 12.8 12.8-20.48 192c0 7.68 2.56 15.36 7.68 20.48l64 64c17.92 17.92 30.72 40.96 35.84 64-25.6-5.12-46.08-17.92-64-35.84L560.64 460.8c-5.12-5.12-10.24-7.68-17.92-7.68l-197.12 20.48-12.8-15.36 130.56-51.2c7.68-2.56 12.8-10.24 15.36-17.92 2.56-7.68 0-15.36-5.12-23.04l-58.88-69.12c-2.56-5.12-7.68-5.12-12.8-5.12l-38.4 15.36v-5.12l66.56-66.56h5.12l-10.24 35.84c-2.56 5.12 0 10.24 5.12 12.8l69.12 58.88c0 5.12 7.68 7.68 12.8 7.68z"  horiz-adv-x="1024" />

    
    <glyph glyph-name="__compass" unicode="&#58957;" d="M327.68 179.2c-7.68 0-15.36 5.12-17.92 10.24-5.12 7.68-5.12 15.36 0 20.48l76.8 151.04c2.56 5.12 7.68 7.68 12.8 7.68s10.24-5.12 10.24-10.24c5.12-20.48 15.36-35.84 28.16-51.2 12.8-12.8 30.72-23.04 51.2-28.16 5.12 0 10.24-5.12 10.24-10.24s-2.56-10.24-7.68-12.8l-151.04-76.8h-12.8z m66.56 145.92l-58.88-115.2 115.2 58.88c-12.8 5.12-23.04 15.36-33.28 23.04s-15.36 20.48-23.04 33.28zM627.2 399.36s-2.56 0 0 0c-7.68 0-10.24 5.12-12.8 10.24-5.12 20.48-15.36 35.84-28.16 51.2-12.8 12.8-30.72 23.04-51.2 28.16-5.12 0-10.24 5.12-10.24 10.24s2.56 10.24 7.68 12.8l151.04 76.8c10.24 5.12 23.04 2.56 28.16-7.68 5.12-7.68 5.12-15.36 0-20.48l-76.8-151.04c0-7.68-2.56-10.24-7.68-10.24z m-56.32 102.4c12.8-5.12 23.04-15.36 33.28-23.04 10.24-10.24 17.92-20.48 23.04-33.28l58.88 117.76-115.2-61.44zM396.8 343.04c-5.12 0-10.24 5.12-12.8 10.24-10.24 43.52 2.56 89.6 33.28 122.88 33.28 33.28 76.8 46.08 122.88 33.28 7.68-2.56 10.24-7.68 10.24-15.36-2.56-7.68-7.68-10.24-15.36-10.24-35.84 7.68-71.68-2.56-99.84-28.16s-35.84-64-28.16-99.84c2.56-7.68-2.56-12.8-10.24-15.36 2.56 2.56 2.56 2.56 0 2.56zM512 253.44c-10.24 0-20.48 0-30.72 2.56-7.68 2.56-10.24 7.68-10.24 15.36s7.68 10.24 15.36 10.24c35.84-7.68 71.68 2.56 99.84 28.16s35.84 64 28.16 99.84c-2.56 7.68 2.56 12.8 10.24 15.36 7.68 2.56 12.8-2.56 15.36-10.24 10.24-43.52-2.56-89.6-33.28-122.88-28.16-25.6-58.88-38.4-94.72-38.4zM512 348.16c-10.24 0-17.92 2.56-25.6 10.24s-10.24 15.36-10.24 25.6 2.56 17.92 10.24 25.6c12.8 12.8 38.4 12.8 51.2 0 7.68-7.68 10.24-15.36 10.24-25.6s-2.56-17.92-10.24-25.6-15.36-10.24-25.6-10.24z m0 46.08c-2.56 0-5.12 0-7.68-2.56s-2.56-5.12-2.56-7.68 0-5.12 2.56-7.68c5.12-5.12 10.24-5.12 15.36 0 2.56 2.56 2.56 5.12 2.56 7.68s0 5.12-2.56 7.68-5.12 2.56-7.68 2.56z"  horiz-adv-x="1024" />

    
    <glyph glyph-name="__setting_wrench" unicode="&#58958;" d="M384 166.4c-30.72 0-56.32 15.36-74.24 38.4-23.04 35.84-17.92 81.92 12.8 112.64l138.24 138.24c-2.56 38.4 10.24 76.8 38.4 104.96 35.84 35.84 87.04 48.64 133.12 33.28 7.68-2.56 12.8-7.68 15.36-15.36s0-15.36-5.12-20.48l-51.2-51.2 10.24-35.84 35.84-10.24 51.2 51.2c10.24 10.24 33.28 5.12 38.4-10.24 12.8-48.64 0-99.84-33.28-133.12-25.6-25.6-58.88-38.4-94.72-38.4H588.8l-138.24-138.24c-23.04-15.36-43.52-25.6-66.56-25.6z m-40.96 133.12c-23.04-23.04-28.16-56.32-10.24-81.92 12.8-17.92 30.72-28.16 53.76-28.16 17.92 0 33.28 7.68 43.52 17.92l140.8 140.8 2.56 2.56c2.56 2.56 7.68 5.12 10.24 5.12 33.28-5.12 66.56 7.68 89.6 30.72 28.16 28.16 38.4 66.56 28.16 102.4l-46.08-46.08c-5.12-5.12-10.24-7.68-15.36-7.68h-5.12l-38.4 10.24c-7.68 2.56-12.8 7.68-15.36 15.36l-10.24 38.4c-2.56 7.68 0 15.36 5.12 20.48l46.08 46.08c-35.84 10.24-76.8-2.56-102.4-28.16-23.04-23.04-35.84-56.32-30.72-89.6 0-5.12-2.56-7.68-5.12-10.24l-140.8-138.24z"  horiz-adv-x="1024" />

    
    <glyph glyph-name="__dashboard" unicode="&#58959;" d="M512 166.4c-120.32 0-217.6 97.28-217.6 217.6s97.28 217.6 217.6 217.6 217.6-97.28 217.6-217.6-97.28-217.6-217.6-217.6z m0 409.6c-104.96 0-192-87.04-192-192s87.04-192 192-192 192 87.04 192 192-87.04 192-192 192zM512 524.8c-7.68 0-12.8 5.12-12.8 12.8v51.2c0 7.68 5.12 12.8 12.8 12.8s12.8-5.12 12.8-12.8v-51.2c0-7.68-5.12-12.8-12.8-12.8zM524.8 588.8v-51.2c0-7.68-5.12-12.8-12.8-12.8s-12.8 5.12-12.8 12.8v51.2h25.6zM376.32 537.6l35.84-35.84c5.12-5.12 5.12-12.8 0-17.92-2.56-2.56-5.12-2.56-10.24-2.56s-7.68 0-10.24 2.56L358.4 519.68l17.92 17.92zM665.6 519.68l-35.84-35.84c-2.56-2.56-5.12-2.56-10.24-2.56s-7.68 0-10.24 2.56c-5.12 5.12-5.12 12.8 0 17.92l35.84 35.84 20.48-17.92zM307.2 396.8h51.2c7.68 0 12.8-5.12 12.8-12.8s-5.12-12.8-12.8-12.8h-51.2v25.6zM716.8 371.2h-51.2c-7.68 0-12.8 5.12-12.8 12.8s5.12 12.8 12.8 12.8h51.2v-25.6zM499.2 384v51.2c0 7.68 5.12 12.8 12.8 12.8s12.8-5.12 12.8-12.8v-51.2h-25.6zM512 320c-20.48 0-38.4 17.92-38.4 38.4s17.92 38.4 38.4 38.4 38.4-17.92 38.4-38.4-17.92-38.4-38.4-38.4z m0 51.2c-7.68 0-12.8-5.12-12.8-12.8s5.12-12.8 12.8-12.8 12.8 5.12 12.8 12.8-5.12 12.8-12.8 12.8z"  horiz-adv-x="1024" />

    
    <glyph glyph-name="__clip" unicode="&#58960;" d="M381.44 192c-23.04 0-46.08 7.68-64 25.6-35.84 35.84-35.84 92.16 0 128L512 537.6c48.64 48.64 130.56 51.2 181.76 0 48.64-48.64 48.64-130.56 0-181.76l-138.24-138.24c-5.12-5.12-12.8-5.12-17.92 0s-5.12 12.8 0 17.92l138.24 138.24c40.96 40.96 40.96 104.96 0 145.92-40.96 40.96-104.96 40.96-145.92 0l-192-192c-25.6-25.6-25.6-66.56 0-89.6 25.6-25.6 66.56-25.6 89.6 0l174.08 174.08c10.24 10.24 10.24 25.6 0 35.84-10.24 10.24-25.6 10.24-35.84 0l-120.32-120.32c-5.12-5.12-12.8-5.12-17.92 0s-5.12 12.8 0 17.92l120.32 120.32c20.48 20.48 51.2 20.48 71.68 0 20.48-20.48 20.48-51.2 0-71.68l-174.08-174.08c-17.92-17.92-40.96-28.16-64-28.16z"  horiz-adv-x="1024" />

    
    <glyph glyph-name="__setting_cog" unicode="&#58961;" d="M512 320c-35.84 0-64 28.16-64 64s28.16 64 64 64 64-28.16 64-64-28.16-64-64-64z m0 102.4c-20.48 0-38.4-17.92-38.4-38.4s17.92-38.4 38.4-38.4 38.4 17.92 38.4 38.4-17.92 38.4-38.4 38.4zM529.92 166.4h-33.28c-15.36 0-30.72 12.8-30.72 30.72v25.6c-10.24 2.56-20.48 7.68-30.72 12.8h-5.12l-17.92-17.92c-10.24-10.24-30.72-10.24-43.52 0l-25.6 25.6c-12.8 12.8-12.8 30.72 0 43.52l17.92 17.92c2.56 2.56 0 5.12 0 5.12-5.12 7.68-7.68 17.92-10.24 25.6 0 2.56-2.56 2.56-5.12 2.56h-23.04c-15.36 0-30.72 12.8-30.72 30.72v33.28c0 15.36 12.8 30.72 30.72 30.72h23.04c2.56 0 2.56 2.56 5.12 2.56 2.56 10.24 7.68 17.92 10.24 25.6v5.12l-17.92 17.92c-12.8 12.8-12.8 30.72 0 43.52l25.6 25.6c10.24 10.24 30.72 10.24 43.52 0l17.92-17.92c2.56-2.56 2.56-2.56 5.12 0 7.68 5.12 17.92 7.68 25.6 10.24 2.56 0 2.56 2.56 2.56 5.12v23.04c0 15.36 12.8 30.72 30.72 30.72h33.28c15.36 0 30.72-12.8 30.72-30.72v-23.04c0-2.56 2.56-2.56 2.56-5.12 7.68-2.56 17.92-7.68 25.6-10.24h5.12l17.92 17.92c10.24 10.24 30.72 10.24 43.52 0l25.6-25.6c12.8-12.8 12.8-30.72 0-43.52l-17.92-17.92c-2.56-2.56 0-5.12 0-5.12 5.12-7.68 7.68-17.92 10.24-25.6 0-2.56 2.56-2.56 5.12-2.56h23.04c15.36 0 30.72-12.8 30.72-30.72v-33.28c0-15.36-12.8-30.72-30.72-30.72h-23.04c-2.56 0-2.56-2.56-5.12-2.56-2.56-10.24-7.68-17.92-10.24-25.6v-5.12l17.92-17.92c12.8-12.8 12.8-30.72 0-43.52l-25.6-25.6c-10.24-10.24-30.72-10.24-43.52 0l-17.92 17.92c-2.56 2.56-2.56 2.56-5.12 0-7.68-5.12-17.92-7.68-25.6-10.24-2.56 0-2.56-2.56-2.56-5.12v-23.04c0-17.92-12.8-30.72-28.16-30.72z m-97.28 94.72c5.12 0 10.24 0 15.36-2.56 10.24-5.12 23.04-10.24 33.28-12.8 5.12-2.56 10.24-7.68 10.24-12.8v-35.84c0-2.56 2.56-5.12 5.12-5.12h33.28c2.56 0 5.12 2.56 5.12 5.12v23.04c0 12.8 7.68 25.6 20.48 28.16 7.68 2.56 15.36 5.12 23.04 10.24 12.8 5.12 25.6 5.12 35.84-5.12l17.92-17.92c2.56-2.56 5.12-2.56 5.12 0l25.6 25.6c2.56 2.56 2.56 5.12 0 5.12l-17.92 17.92c-10.24 10.24-10.24 23.04-5.12 35.84 2.56 7.68 7.68 15.36 10.24 23.04 5.12 12.8 15.36 20.48 28.16 20.48h23.04c2.56 0 5.12 2.56 5.12 5.12v33.28c0 2.56-2.56 5.12-5.12 5.12h-23.04c-12.8 0-25.6 7.68-28.16 20.48-2.56 7.68-5.12 15.36-10.24 23.04-5.12 12.8-5.12 25.6 5.12 35.84l17.92 17.92c2.56 2.56 2.56 5.12 0 5.12l-25.6 25.6c-2.56 2.56-5.12 2.56-5.12 0l-17.92-17.92c-10.24-7.68-23.04-10.24-35.84-5.12-7.68 2.56-15.36 7.68-23.04 10.24-12.8 5.12-20.48 15.36-20.48 28.16v23.04c0 2.56-2.56 5.12-5.12 5.12h-33.28c-2.56 0-5.12-2.56-5.12-5.12v-23.04c0-12.8-7.68-25.6-20.48-28.16-7.68-2.56-15.36-5.12-23.04-10.24-12.8-5.12-25.6-5.12-35.84 5.12l-17.92 17.92c-2.56 2.56-5.12 2.56-5.12 0l-25.6-25.6c-2.56-2.56-2.56-5.12 0-5.12l17.92-17.92c10.24-10.24 10.24-23.04 5.12-35.84-2.56-7.68-7.68-15.36-10.24-23.04-5.12-12.8-15.36-20.48-28.16-20.48h-23.04c-2.56 0-5.12-2.56-5.12-5.12v-33.28c0-2.56 2.56-5.12 5.12-5.12h23.04c12.8 0 25.6-7.68 28.16-20.48 2.56-7.68 5.12-15.36 10.24-23.04 5.12-12.8 5.12-25.6-5.12-35.84l-17.92-17.92c-2.56-2.56-2.56-5.12 0-5.12l25.6-25.6c2.56-2.56 5.12-2.56 5.12 0l17.92 17.92c5.12 5.12 12.8 7.68 20.48 7.68z"  horiz-adv-x="1024" />

    
    <glyph glyph-name="__setting_edit" unicode="&#58962;" d="M642.56 419.84c-2.56 0-7.68 0-10.24 2.56l-81.92 81.92c-2.56 2.56-2.56 5.12-2.56 10.24s2.56 7.68 2.56 10.24l33.28 33.28c20.48 20.48 53.76 20.48 71.68 0l28.16-28.16c20.48-20.48 20.48-53.76 0-71.68l-33.28-33.28c0-5.12-5.12-5.12-7.68-5.12z m-64 94.72l64-64 25.6 25.6c10.24 10.24 10.24 25.6 0 35.84L640 540.16c-10.24 10.24-25.6 10.24-35.84 0l-25.6-25.6zM320 179.2c-2.56 0-7.68 2.56-10.24 2.56-2.56 5.12-2.56 7.68-2.56 12.8l15.36 97.28c0 2.56 2.56 5.12 2.56 7.68l225.28 225.28c5.12 5.12 12.8 5.12 17.92 0l81.92-81.92c2.56-2.56 2.56-5.12 2.56-10.24s-2.56-7.68-2.56-10.24l-225.28-225.28c-2.56-2.56-5.12-2.56-7.68-2.56l-97.28-15.36c2.56 0 0 0 0 0z m28.16 104.96l-12.8-76.8 76.8 12.8 212.48 212.48-64 64-212.48-212.48zM440.32 217.6c-2.56 0-7.68 0-10.24 2.56l-81.92 81.92c-5.12 5.12-5.12 12.8 0 17.92s12.8 5.12 17.92 0l81.92-81.92c5.12-5.12 5.12-12.8 0-17.92 0 0-2.56-2.56-7.68-2.56z"  horiz-adv-x="1024" />

    
    <glyph glyph-name="__ruler" unicode="&#58963;" d="M424.96 176.64c-10.24 0-20.48 5.12-28.16 10.24l-81.92 81.92c-7.68 7.68-10.24 17.92-10.24 28.16s5.12 20.48 10.24 28.16l256 256c15.36 15.36 40.96 15.36 53.76 0l81.92-81.92c7.68-7.68 10.24-17.92 10.24-28.16s-5.12-20.48-10.24-28.16l-256-256c-7.68-5.12-15.36-10.24-25.6-10.24z m174.08 389.12c-2.56 0-7.68-2.56-10.24-2.56L332.8 307.2c-2.56-2.56-2.56-5.12-2.56-10.24s2.56-7.68 2.56-10.24l81.92-81.92c5.12-5.12 12.8-5.12 17.92 0l256 256c2.56 2.56 2.56 5.12 2.56 10.24s-2.56 7.68-2.56 10.24L606.72 563.2s-2.56 2.56-7.68 2.56zM522.24 419.84c-2.56 0-7.68 0-10.24 2.56L473.6 460.8c-5.12 5.12-5.12 12.8 0 17.92s12.8 5.12 17.92 0l38.4-38.4c5.12-5.12 5.12-12.8 0-17.92-2.56 0-5.12-2.56-7.68-2.56zM463.36 360.96c-2.56 0-7.68 0-10.24 2.56l-38.4 38.4c-5.12 5.12-5.12 12.8 0 17.92s12.8 5.12 17.92 0l38.4-38.4c5.12-5.12 5.12-12.8 0-17.92 0 0-5.12-2.56-7.68-2.56zM404.48 302.08c-2.56 0-7.68 0-10.24 2.56l-38.4 38.4c-5.12 5.12-5.12 12.8 0 17.92s12.8 5.12 17.92 0l38.4-38.4c5.12-5.12 5.12-12.8 0-17.92 0 0-5.12-2.56-7.68-2.56zM581.12 478.72c-2.56 0-7.68 0-10.24 2.56l-38.4 38.4c-5.12 5.12-5.12 12.8 0 17.92s12.8 5.12 17.92 0l38.4-38.4c5.12-5.12 5.12-12.8 0-17.92-2.56-2.56-5.12-2.56-7.68-2.56z"  horiz-adv-x="1024" />

    
    <glyph glyph-name="__empty" unicode="&#58964;" d="M691.2 422.4H332.8c-7.68 0-12.8 5.12-12.8 12.8v51.2c0 20.48 17.92 38.4 38.4 38.4h307.2c20.48 0 38.4-17.92 38.4-38.4v-51.2c0-5.12-5.12-12.8-12.8-12.8z m-345.6 25.6h332.8V486.4c0 7.68-5.12 12.8-12.8 12.8H358.4c-7.68 0-12.8-5.12-12.8-12.8v-38.4zM614.4 166.4h-204.8c-35.84 0-64 28.16-64 64v204.8c0 7.68 5.12 12.8 12.8 12.8s12.8-5.12 12.8-12.8v-204.8c0-20.48 17.92-38.4 38.4-38.4h204.8c20.48 0 38.4 17.92 38.4 38.4v204.8c0 7.68 5.12 12.8 12.8 12.8s12.8-5.12 12.8-12.8v-204.8c0-35.84-28.16-64-64-64zM576 512h-25.6v51.2c0 7.68-5.12 12.8-12.8 12.8h-51.2c-7.68 0-12.8-5.12-12.8-12.8v-51.2h-25.6v51.2c0 20.48 17.92 38.4 38.4 38.4h51.2c20.48 0 38.4-17.92 38.4-38.4v-51.2zM435.2 243.2c-7.68 0-12.8 5.12-12.8 12.8v102.4c0 7.68 5.12 12.8 12.8 12.8s12.8-5.12 12.8-12.8v-102.4c0-7.68-5.12-12.8-12.8-12.8zM512 243.2c-7.68 0-12.8 5.12-12.8 12.8v102.4c0 7.68 5.12 12.8 12.8 12.8s12.8-5.12 12.8-12.8v-102.4c0-7.68-5.12-12.8-12.8-12.8zM588.8 243.2c-7.68 0-12.8 5.12-12.8 12.8v102.4c0 7.68 5.12 12.8 12.8 12.8s12.8-5.12 12.8-12.8v-102.4c0-7.68-5.12-12.8-12.8-12.8z"  horiz-adv-x="1024" />

    
    <glyph glyph-name="__chart" unicode="&#58965;" d="M716.8 166.4H307.2c-7.68 0-12.8 5.12-12.8 12.8V588.8c0 7.68 5.12 12.8 12.8 12.8s12.8-5.12 12.8-12.8v-396.8H716.8c7.68 0 12.8-5.12 12.8-12.8s-5.12-12.8-12.8-12.8zM307.2 320c-5.12 0-7.68 2.56-10.24 5.12-5.12 5.12-2.56 12.8 2.56 17.92l99.84 74.24c5.12 2.56 10.24 2.56 15.36 0L512 358.4l168.96 158.72c5.12 5.12 12.8 5.12 17.92 0s5.12-12.8 0-17.92L522.24 332.8c-5.12-5.12-10.24-5.12-15.36-2.56L409.6 389.12l-92.16-69.12H307.2zM419.84 179.2v112.64h-25.6V179.2h-25.6v125.44c0 7.68 5.12 12.8 12.8 12.8h51.2c7.68 0 12.8-5.12 12.8-12.8V179.2h-25.6zM535.04 179.2v69.12h-25.6V179.2h-25.6v81.92c0 7.68 5.12 12.8 12.8 12.8h51.2c7.68 0 12.8-5.12 12.8-12.8V179.2h-25.6zM650.24 179.2v151.04h-25.6V179.2h-25.6v163.84c0 7.68 5.12 12.8 12.8 12.8h51.2c7.68 0 12.8-5.12 12.8-12.8V179.2h-25.6z"  horiz-adv-x="1024" />

    
    <glyph glyph-name="__piechart" unicode="&#58966;" d="M512 166.4c-15.36 0-33.28 2.56-48.64 5.12-117.76 25.6-189.44 143.36-163.84 261.12 23.04 99.84 110.08 168.96 212.48 168.96 15.36 0 33.28-2.56 48.64-5.12 117.76-25.6 189.44-143.36 163.84-261.12-23.04-99.84-110.08-168.96-212.48-168.96z m0 409.6c-89.6 0-166.4-61.44-186.88-148.48-23.04-102.4 40.96-207.36 145.92-230.4 12.8-2.56 28.16-5.12 43.52-5.12 89.6 0 166.4 61.44 186.88 148.48 23.04 102.4-40.96 207.36-145.92 230.4-15.36 2.56-30.72 5.12-43.52 5.12zM570.88 581.12l-40.96-176.64 163.84 56.32c7.68 2.56 12.8-2.56 15.36-7.68 2.56-7.68-2.56-12.8-7.68-15.36l-184.32-64H512c-2.56 0-5.12 0-7.68 2.56-2.56 2.56-5.12 7.68-5.12 12.8l46.08 199.68 25.6-7.68zM512 371.2h-199.68c-7.68 0-12.8 5.12-12.8 12.8s5.12 12.8 12.8 12.8H512c7.68 0 12.8-5.12 12.8-12.8s-5.12-12.8-12.8-12.8z"  horiz-adv-x="1024" />

    
    <glyph glyph-name="__filter" unicode="&#58967;" d="M499.2 168.96c-20.48 0-38.4 17.92-38.4 38.4v171.52c0 2.56 0 5.12-2.56 7.68l-102.4 120.32c-5.12 7.68-10.24 15.36-10.24 25.6v40.96c0 20.48 17.92 38.4 38.4 38.4h256c20.48 0 38.4-17.92 38.4-38.4v-40.96c0-10.24-2.56-17.92-10.24-25.6l-102.4-120.32c-2.56 0-2.56-2.56-2.56-5.12v-158.72c0-15.36-7.68-28.16-20.48-33.28l-25.6-12.8c-5.12-5.12-12.8-7.68-17.92-7.68zM384 588.8c-7.68 0-12.8-5.12-12.8-12.8v-40.96c0-2.56 0-5.12 2.56-7.68l102.4-120.32c5.12-7.68 10.24-15.36 10.24-25.6v-171.52c0-10.24 10.24-15.36 17.92-10.24l25.6 12.8c5.12 2.56 7.68 7.68 7.68 10.24v158.72c0 10.24 2.56 17.92 10.24 25.6l102.4 120.32c2.56 2.56 2.56 5.12 2.56 7.68v40.96c0 7.68-5.12 12.8-12.8 12.8H384zM358.4 537.6h309.76v-25.6H358.4z"  horiz-adv-x="1024" />

    
    <glyph glyph-name="__briefcase" unicode="&#58968;" d="M665.6 179.2H358.4c-35.84 0-64 28.16-64 64v204.8c0 35.84 28.16 64 64 64h307.2c35.84 0 64-28.16 64-64v-204.8c0-35.84-28.16-64-64-64zM358.4 486.4c-20.48 0-38.4-17.92-38.4-38.4v-204.8c0-20.48 17.92-38.4 38.4-38.4h307.2c20.48 0 38.4 17.92 38.4 38.4v204.8c0 20.48-17.92 38.4-38.4 38.4H358.4zM307.2 384h409.6v-25.6H307.2zM435.2 332.8c-7.68 0-12.8 5.12-12.8 12.8v51.2c0 7.68 5.12 12.8 12.8 12.8s12.8-5.12 12.8-12.8v-51.2c0-7.68-5.12-12.8-12.8-12.8zM588.8 332.8c-7.68 0-12.8 5.12-12.8 12.8v51.2c0 7.68 5.12 12.8 12.8 12.8s12.8-5.12 12.8-12.8v-51.2c0-7.68-5.12-12.8-12.8-12.8zM422.4 499.2v43.52c0 25.6 20.48 46.08 46.08 46.08h89.6c25.6 0 46.08-20.48 46.08-46.08v-43.52h-25.6v43.52c0 10.24-7.68 20.48-20.48 20.48h-89.6c-10.24 0-20.48-7.68-20.48-20.48v-43.52h-25.6z"  horiz-adv-x="1024" />

    
    <glyph glyph-name="__idcard" unicode="&#58969;" d="M499.2 371.2H384c-7.68 0-12.8 5.12-12.8 12.8s5.12 12.8 12.8 12.8h115.2c7.68 0 12.8-5.12 12.8-12.8s-5.12-12.8-12.8-12.8zM499.2 435.2H384c-7.68 0-12.8 5.12-12.8 12.8s5.12 12.8 12.8 12.8h115.2c7.68 0 12.8-5.12 12.8-12.8s-5.12-12.8-12.8-12.8zM691.2 230.4H332.8c-20.48 0-38.4 17.92-38.4 38.4v230.4c0 20.48 17.92 38.4 38.4 38.4h358.4c20.48 0 38.4-17.92 38.4-38.4v-230.4c0-20.48-17.92-38.4-38.4-38.4zM332.8 512c-7.68 0-12.8-5.12-12.8-12.8v-230.4c0-7.68 5.12-12.8 12.8-12.8h358.4c7.68 0 12.8 5.12 12.8 12.8v230.4c0 7.68-5.12 12.8-12.8 12.8H332.8zM640 307.2H384c-7.68 0-12.8 5.12-12.8 12.8s5.12 12.8 12.8 12.8h256c7.68 0 12.8-5.12 12.8-12.8s-5.12-12.8-12.8-12.8zM640 363.52h-66.56c-7.68 0-12.8 5.12-12.8 12.8v76.8c0 7.68 5.12 12.8 12.8 12.8H640c7.68 0 12.8-5.12 12.8-12.8v-76.8c0-7.68-5.12-12.8-12.8-12.8z m-53.76 25.6h40.96v51.2h-40.96v-51.2z"  horiz-adv-x="1024" />

    
    <glyph glyph-name="__picture" unicode="&#58970;" d="M665.6 217.6H358.4c-35.84 0-64 28.16-64 64v204.8c0 35.84 28.16 64 64 64h307.2c35.84 0 64-28.16 64-64v-204.8c0-35.84-28.16-64-64-64z m-307.2 307.2c-20.48 0-38.4-17.92-38.4-38.4v-204.8c0-20.48 17.92-38.4 38.4-38.4h307.2c20.48 0 38.4 17.92 38.4 38.4v204.8c0 20.48-17.92 38.4-38.4 38.4H358.4zM716.8 309.76c-71.68 0-112.64 23.04-148.48 40.96-30.72 17.92-61.44 33.28-110.08 33.28-81.92 0-140.8-69.12-140.8-69.12-2.56-2.56-5.12-5.12-10.24-5.12l-10.24 20.48c2.56 2.56 66.56 79.36 161.28 79.36 56.32 0 89.6-17.92 122.88-35.84 33.28-17.92 69.12-38.4 135.68-38.4v-25.6zM627.2 399.36c-20.48 0-38.4 17.92-38.4 38.4s17.92 38.4 38.4 38.4 38.4-17.92 38.4-38.4-17.92-38.4-38.4-38.4z m0 51.2c-7.68 0-12.8-5.12-12.8-12.8s5.12-12.8 12.8-12.8 12.8 5.12 12.8 12.8-5.12 12.8-12.8 12.8z"  horiz-adv-x="1024" />

    
    <glyph glyph-name="__file" unicode="&#58971;" d="M614.4 166.4h-204.8c-35.84 0-64 28.16-64 64V537.6c0 35.84 28.16 64 64 64h204.8c35.84 0 64-28.16 64-64v-307.2c0-35.84-28.16-64-64-64z m-204.8 409.6c-20.48 0-38.4-17.92-38.4-38.4v-307.2c0-20.48 17.92-38.4 38.4-38.4h204.8c20.48 0 38.4 17.92 38.4 38.4V537.6c0 20.48-17.92 38.4-38.4 38.4h-204.8zM486.4 448h-51.2c-7.68 0-12.8 5.12-12.8 12.8v51.2c0 7.68 5.12 12.8 12.8 12.8h51.2c7.68 0 12.8-5.12 12.8-12.8v-51.2c0-7.68-5.12-12.8-12.8-12.8z m-38.4 25.6h25.6v25.6h-25.6v-25.6zM588.8 396.8h-153.6c-7.68 0-12.8 5.12-12.8 12.8s5.12 12.8 12.8 12.8h153.6c7.68 0 12.8-5.12 12.8-12.8s-5.12-12.8-12.8-12.8zM588.8 320h-153.6c-7.68 0-12.8 5.12-12.8 12.8s5.12 12.8 12.8 12.8h153.6c7.68 0 12.8-5.12 12.8-12.8s-5.12-12.8-12.8-12.8zM588.8 243.2h-153.6c-7.68 0-12.8 5.12-12.8 12.8s5.12 12.8 12.8 12.8h153.6c7.68 0 12.8-5.12 12.8-12.8s-5.12-12.8-12.8-12.8zM588.8 473.6h-51.2c-7.68 0-12.8 5.12-12.8 12.8s5.12 12.8 12.8 12.8h51.2c7.68 0 12.8-5.12 12.8-12.8s-5.12-12.8-12.8-12.8z"  horiz-adv-x="1024" />

    
    <glyph glyph-name="__search" unicode="&#58972;" d="M473.6 281.6c-76.8 0-140.8 64-140.8 140.8s64 140.8 140.8 140.8 140.8-64 140.8-140.8-64-140.8-140.8-140.8z m0 256C409.6 537.6 358.4 486.4 358.4 422.4s51.2-115.2 115.2-115.2 115.2 51.2 115.2 115.2-51.2 115.2-115.2 115.2zM576 337.92l112.64-112.64c5.12-5.12 5.12-12.8 0-17.92-2.56-2.56-7.68-2.56-10.24-2.56s-7.68 0-10.24 2.56l-112.64 112.64 20.48 17.92z"  horiz-adv-x="1024" />

    
    <glyph glyph-name="__camera" unicode="&#58973;" d="M512 289.28c-43.52 0-76.8 33.28-76.8 76.8s33.28 76.8 76.8 76.8 76.8-33.28 76.8-76.8-33.28-76.8-76.8-76.8z m0 128c-28.16 0-51.2-23.04-51.2-51.2s23.04-51.2 51.2-51.2 51.2 23.04 51.2 51.2-23.04 51.2-51.2 51.2zM691.2 212.48H332.8c-20.48 0-38.4 17.92-38.4 38.4V460.8c0 20.48 17.92 38.4 38.4 38.4h61.44c7.68 0 12.8 5.12 12.8 12.8v5.12c0 20.48 17.92 38.4 38.4 38.4h135.68c20.48 0 38.4-17.92 38.4-38.4v-5.12c0-7.68 5.12-12.8 12.8-12.8H691.2c20.48 0 38.4-17.92 38.4-38.4v-209.92c0-20.48-17.92-38.4-38.4-38.4zM332.8 473.6c-7.68 0-12.8-5.12-12.8-12.8v-209.92c0-7.68 5.12-12.8 12.8-12.8h358.4c7.68 0 12.8 5.12 12.8 12.8V460.8c0 7.68-5.12 12.8-12.8 12.8h-61.44c-20.48 0-38.4 17.92-38.4 38.4v5.12c0 7.68-5.12 12.8-12.8 12.8h-135.68c-7.68 0-12.8-5.12-12.8-12.8v-5.12c0-20.48-17.92-38.4-38.4-38.4H332.8z"  horiz-adv-x="1024" />

    
    <glyph glyph-name="__zoomin" unicode="&#58974;" d="M473.6 281.6c-76.8 0-140.8 64-140.8 140.8s64 140.8 140.8 140.8 140.8-64 140.8-140.8-64-140.8-140.8-140.8z m0 256C409.6 537.6 358.4 486.4 358.4 422.4s51.2-115.2 115.2-115.2 115.2 51.2 115.2 115.2-51.2 115.2-115.2 115.2zM576 337.92l112.64-112.64c5.12-5.12 5.12-12.8 0-17.92-2.56-2.56-7.68-2.56-10.24-2.56s-7.68 0-10.24 2.56l-112.64 112.64 20.48 17.92zM512 409.6h-76.8c-7.68 0-12.8 5.12-12.8 12.8s5.12 12.8 12.8 12.8h76.8c7.68 0 12.8-5.12 12.8-12.8s-5.12-12.8-12.8-12.8zM473.6 371.2c-7.68 0-12.8 5.12-12.8 12.8v76.8c0 7.68 5.12 12.8 12.8 12.8s12.8-5.12 12.8-12.8v-76.8c0-7.68-5.12-12.8-12.8-12.8z"  horiz-adv-x="1024" />

    
    <glyph glyph-name="__zoomout" unicode="&#58975;" d="M473.6 281.6c-76.8 0-140.8 64-140.8 140.8s64 140.8 140.8 140.8 140.8-64 140.8-140.8-64-140.8-140.8-140.8z m0 256C409.6 537.6 358.4 486.4 358.4 422.4s51.2-115.2 115.2-115.2 115.2 51.2 115.2 115.2-51.2 115.2-115.2 115.2zM576 337.92l112.64-112.64c5.12-5.12 5.12-12.8 0-17.92-2.56-2.56-7.68-2.56-10.24-2.56s-7.68 0-10.24 2.56l-112.64 112.64 20.48 17.92zM512 409.6h-76.8c-7.68 0-12.8 5.12-12.8 12.8s5.12 12.8 12.8 12.8h76.8c7.68 0 12.8-5.12 12.8-12.8s-5.12-12.8-12.8-12.8z"  horiz-adv-x="1024" />

    
    <glyph glyph-name="__unlocked" unicode="&#58976;" d="M663.04 174.08H360.96c-23.04 0-40.96 17.92-40.96 40.96v174.08c0 23.04 17.92 40.96 40.96 40.96h302.08c23.04 0 40.96-17.92 40.96-40.96v-174.08c0-23.04-17.92-40.96-40.96-40.96z m-302.08 230.4c-7.68 0-15.36-7.68-15.36-15.36v-174.08c0-7.68 7.68-15.36 15.36-15.36h302.08c7.68 0 15.36 7.68 15.36 15.36v174.08c0 7.68-7.68 15.36-15.36 15.36H360.96zM396.8 417.28v84.48c0 64 51.2 115.2 115.2 115.2s115.2-51.2 115.2-115.2c0-7.68-5.12-12.8-12.8-12.8s-12.8 5.12-12.8 12.8c0 48.64-40.96 89.6-89.6 89.6s-89.6-40.96-89.6-89.6v-84.48h-25.6zM512 261.12c-7.68 0-12.8 5.12-12.8 12.8V332.8c0 7.68 5.12 12.8 12.8 12.8s12.8-5.12 12.8-12.8v-58.88c0-7.68-5.12-12.8-12.8-12.8zM512 248.32c-7.68 0-12.8 2.56-17.92 7.68-5.12 5.12-7.68 10.24-7.68 17.92 0 7.68 2.56 12.8 7.68 17.92 10.24 10.24 25.6 10.24 35.84 0 5.12-5.12 7.68-10.24 7.68-17.92 0-7.68-2.56-12.8-7.68-17.92-5.12-5.12-10.24-7.68-17.92-7.68z"  horiz-adv-x="1024" />

    
    <glyph glyph-name="__locked" unicode="&#58977;" d="M663.04 174.08H360.96c-23.04 0-40.96 17.92-40.96 40.96v174.08c0 23.04 17.92 40.96 40.96 40.96h302.08c23.04 0 40.96-17.92 40.96-40.96v-174.08c0-23.04-17.92-40.96-40.96-40.96z m-302.08 230.4c-7.68 0-15.36-7.68-15.36-15.36v-174.08c0-7.68 7.68-15.36 15.36-15.36h302.08c7.68 0 15.36 7.68 15.36 15.36v174.08c0 7.68-7.68 15.36-15.36 15.36H360.96zM601.6 417.28v58.88c0 48.64-40.96 89.6-89.6 89.6s-89.6-40.96-89.6-89.6v-58.88h-25.6v58.88c0 64 51.2 115.2 115.2 115.2s115.2-51.2 115.2-115.2v-58.88h-25.6zM512 261.12c-7.68 0-12.8 5.12-12.8 12.8V332.8c0 7.68 5.12 12.8 12.8 12.8s12.8-5.12 12.8-12.8v-58.88c0-7.68-5.12-12.8-12.8-12.8zM512 248.32c-7.68 0-12.8 2.56-17.92 7.68-5.12 5.12-7.68 10.24-7.68 17.92 0 7.68 2.56 12.8 7.68 17.92 10.24 10.24 25.6 10.24 35.84 0 5.12-5.12 7.68-10.24 7.68-17.92 0-7.68-2.56-12.8-7.68-17.92-5.12-5.12-10.24-7.68-17.92-7.68z"  horiz-adv-x="1024" />

    
    <glyph glyph-name="__key" unicode="&#58978;" d="M432.64 166.4c-43.52 0-84.48 23.04-110.08 58.88-28.16 43.52-28.16 102.4 5.12 145.92 25.6 33.28 61.44 53.76 104.96 53.76 15.36 0 33.28-2.56 48.64-10.24l64 64-28.16 28.16c-15.36 15.36-15.36 38.4 0 51.2l20.48 20.48c12.8 12.8 38.4 12.8 51.2 0l28.16-28.16 10.24 10.24c12.8 12.8 38.4 12.8 51.2 0l20.48-20.48c15.36-15.36 15.36-38.4 0-51.2l-145.92-145.92c17.92-48.64 7.68-102.4-28.16-138.24-25.6-25.6-56.32-38.4-92.16-38.4z m0 232.96c-33.28 0-64-15.36-84.48-43.52-25.6-33.28-25.6-81.92-2.56-117.76 20.48-30.72 51.2-48.64 87.04-48.64 28.16 0 53.76 10.24 74.24 30.72 30.72 30.72 38.4 79.36 20.48 117.76-2.56 5.12-2.56 10.24 2.56 15.36l153.6 153.6c5.12 5.12 5.12 12.8 0 15.36l-20.48 20.48c-5.12 5.12-12.8 5.12-15.36 0l-20.48-20.48c-5.12-5.12-12.8-5.12-17.92 0L568.32 563.2c-5.12 5.12-12.8 5.12-15.36 0l-20.48-20.48c-5.12-5.12-5.12-12.8 0-15.36l38.4-38.4c2.56-2.56 2.56-5.12 2.56-10.24s-2.56-7.68-2.56-10.24l-79.36-79.36c-2.56-5.12-10.24-5.12-15.36-2.56-12.8 10.24-28.16 12.8-43.52 12.8zM432.64 245.76c-12.8 0-25.6 5.12-35.84 15.36-10.24 10.24-15.36 23.04-15.36 35.84 0 12.8 5.12 25.6 15.36 35.84 20.48 20.48 53.76 20.48 71.68 0 10.24-10.24 15.36-23.04 15.36-35.84 0-12.8-5.12-25.6-15.36-35.84s-23.04-15.36-35.84-15.36z m0 76.8c-7.68 0-12.8-2.56-17.92-7.68-5.12-5.12-7.68-10.24-7.68-17.92 0-7.68 2.56-12.8 7.68-17.92 10.24-10.24 25.6-10.24 35.84 0 5.12 5.12 7.68 10.24 7.68 17.92 0 7.68-2.56 12.8-7.68 17.92s-10.24 7.68-17.92 7.68z"  horiz-adv-x="1024" />

    
    <glyph glyph-name="__home" unicode="&#58979;" d="M665.6 220.16H358.4c-20.48 0-38.4 17.92-38.4 38.4v128c0 7.68-5.12 12.8-12.8 12.8h-25.6c-5.12 0-10.24 2.56-12.8 7.68-2.56 5.12 0 10.24 5.12 15.36l215.04 166.4c12.8 10.24 33.28 10.24 46.08 0l215.04-166.4c5.12-2.56 5.12-10.24 5.12-15.36-2.56-5.12-7.68-7.68-12.8-7.68h-25.6c-7.68 0-12.8-5.12-12.8-12.8v-128c0-20.48-17.92-38.4-38.4-38.4z m-348.16 204.8c15.36-5.12 28.16-20.48 28.16-35.84v-128c0-7.68 5.12-12.8 12.8-12.8h307.2c7.68 0 12.8 5.12 12.8 12.8v128c0 17.92 12.8 33.28 28.16 35.84l-186.88 145.92c-5.12 2.56-10.24 2.56-15.36 0l-186.88-145.92zM550.4 232.96v128c0 7.68-5.12 12.8-12.8 12.8h-51.2c-7.68 0-12.8-5.12-12.8-12.8v-128h-25.6v128c0 20.48 17.92 38.4 38.4 38.4h51.2c20.48 0 38.4-17.92 38.4-38.4v-128h-25.6z"  horiz-adv-x="1024" />

    
    <glyph glyph-name="__warehouse" unicode="&#58980;" d="M665.6 194.56H358.4c-20.48 0-38.4 17.92-38.4 38.4v128c0 7.68-5.12 12.8-12.8 12.8h-25.6c-5.12 0-10.24 2.56-12.8 7.68-2.56 5.12 0 10.24 5.12 15.36l215.04 166.4c12.8 10.24 33.28 10.24 46.08 0l215.04-166.4c5.12-2.56 5.12-10.24 5.12-15.36-2.56-5.12-7.68-7.68-12.8-7.68h-25.6c-7.68 0-12.8-5.12-12.8-12.8v-128c0-20.48-17.92-38.4-38.4-38.4z m-348.16 204.8c15.36-5.12 28.16-20.48 28.16-35.84v-128c0-7.68 5.12-12.8 12.8-12.8h307.2c7.68 0 12.8 5.12 12.8 12.8v128c0 17.92 12.8 33.28 28.16 35.84l-186.88 145.92c-5.12 2.56-10.24 2.56-15.36 0l-186.88-145.92zM601.6 207.36v102.4c0 20.48-17.92 38.4-38.4 38.4h-102.4c-20.48 0-38.4-17.92-38.4-38.4v-102.4h-25.6v102.4c0 35.84 28.16 64 64 64h102.4c35.84 0 64-28.16 64-64v-102.4h-25.6zM409.6 322.56h204.8v-25.6h-204.8zM409.6 271.36h204.8v-25.6h-204.8z"  horiz-adv-x="1024" />

    
    <glyph glyph-name="__user" unicode="&#58981;" d="M517.12 368.64c-56.32 0-102.4 51.2-102.4 115.2s46.08 115.2 102.4 115.2 102.4-51.2 102.4-115.2-46.08-115.2-102.4-115.2z m0 204.8c-43.52 0-76.8-40.96-76.8-89.6s33.28-89.6 76.8-89.6 76.8 40.96 76.8 89.6-33.28 89.6-76.8 89.6zM670.72 194.56c-7.68 0-12.8 5.12-12.8 12.8v87.04c0 48.64-38.4 87.04-87.04 87.04H563.2c-7.68 0-12.8 5.12-12.8 12.8s5.12 12.8 12.8 12.8h10.24c61.44 0 112.64-51.2 112.64-112.64v-87.04c-2.56-7.68-7.68-12.8-15.36-12.8zM363.52 194.56c-7.68 0-12.8 5.12-12.8 12.8v87.04c0 61.44 51.2 112.64 112.64 112.64h10.24c7.68 0 12.8-5.12 12.8-12.8s-5.12-12.8-12.8-12.8h-10.24c-48.64 0-87.04-38.4-87.04-87.04v-87.04c0-7.68-5.12-12.8-12.8-12.8z"  horiz-adv-x="1024" />

    
    <glyph glyph-name="__assisant" unicode="&#58982;" d="M512 355.84c-56.32 0-102.4 51.2-102.4 115.2s46.08 115.2 102.4 115.2 102.4-51.2 102.4-115.2-46.08-115.2-102.4-115.2z m0 204.8c-43.52 0-76.8-40.96-76.8-89.6s33.28-89.6 76.8-89.6 76.8 40.96 76.8 89.6-33.28 89.6-76.8 89.6zM665.6 181.76c-7.68 0-12.8 5.12-12.8 12.8V281.6c0 48.64-38.4 87.04-87.04 87.04h-10.24c-7.68 0-12.8 5.12-12.8 12.8s5.12 12.8 12.8 12.8h10.24c61.44 0 112.64-51.2 112.64-112.64v-87.04c0-7.68-5.12-12.8-12.8-12.8zM358.4 181.76c-7.68 0-12.8 5.12-12.8 12.8V281.6c0 61.44 51.2 112.64 112.64 112.64h10.24c7.68 0 12.8-5.12 12.8-12.8s-5.12-12.8-12.8-12.8h-10.24c-48.64 0-87.04-38.4-87.04-87.04v-87.04c0-7.68-5.12-12.8-12.8-12.8zM458.24 386.56l53.76-84.48 53.76 84.48 20.48-12.8-64-102.4c-2.56-2.56-7.68-5.12-10.24-5.12s-7.68 2.56-10.24 5.12l-64 102.4 20.48 12.8zM424.96 512h227.84c7.68 0 12.8-5.12 12.8-12.8s-5.12-12.8-10.24-12.8h-227.84v25.6z"  horiz-adv-x="1024" />

    
    <glyph glyph-name="__team" unicode="&#58983;" d="M512 335.36c-38.4 0-69.12 33.28-69.12 76.8s30.72 76.8 69.12 76.8 69.12-33.28 69.12-76.8-30.72-76.8-69.12-76.8z m0 128c-23.04 0-43.52-23.04-43.52-51.2s17.92-51.2 43.52-51.2 43.52 23.04 43.52 51.2-20.48 51.2-43.52 51.2zM540.16 368.64h5.12c40.96 0 74.24-33.28 74.24-74.24v-53.76c0-7.68-5.12-12.8-12.8-12.8s-12.8 5.12-12.8 12.8v53.76c0 25.6-23.04 48.64-48.64 48.64h-5.12v25.6zM483.84 343.04h-5.12c-25.6 0-48.64-23.04-48.64-48.64v-53.76c0-7.68-5.12-12.8-12.8-12.8s-12.8 5.12-12.8 12.8v53.76c0 40.96 33.28 74.24 74.24 74.24h5.12v-25.6zM652.8 386.56c-30.72 0-58.88 28.16-58.88 64s25.6 64 58.88 64 58.88-28.16 58.88-64-28.16-64-58.88-64z m0 102.4c-17.92 0-33.28-17.92-33.28-38.4s15.36-38.4 33.28-38.4 33.28 17.92 33.28 38.4-15.36 38.4-33.28 38.4zM675.84 417.28h5.12c33.28 0 61.44-28.16 61.44-61.44v-43.52c0-7.68-5.12-12.8-12.8-12.8s-12.8 5.12-12.8 12.8v43.52c0 20.48-15.36 35.84-35.84 35.84h-5.12v25.6zM629.76 391.68h-5.12c-20.48 0-35.84-15.36-35.84-35.84 0-7.68-5.12-12.8-12.8-12.8s-12.8 5.12-12.8 12.8c0 33.28 28.16 61.44 61.44 61.44h5.12v-25.6zM371.2 386.56c-30.72 0-58.88 28.16-58.88 64s25.6 64 58.88 64 58.88-28.16 58.88-64-28.16-64-58.88-64z m0 102.4c-17.92 0-33.28-17.92-33.28-38.4s15.36-38.4 33.28-38.4 33.28 17.92 33.28 38.4-15.36 38.4-33.28 38.4zM394.24 417.28h5.12c33.28 0 61.44-28.16 61.44-61.44 0-7.68-5.12-12.8-12.8-12.8s-12.8 5.12-12.8 12.8c0 20.48-15.36 35.84-35.84 35.84h-5.12v25.6zM348.16 391.68h-5.12c-20.48 0-35.84-15.36-35.84-35.84v-43.52c0-7.68-5.12-12.8-12.8-12.8s-12.8 5.12-12.8 12.8v43.52c0 33.28 28.16 61.44 61.44 61.44h5.12v-25.6z"  horiz-adv-x="1024" />

    
    <glyph glyph-name="__medal" unicode="&#58984;" d="M499.2 437.76l-51.2 138.24h-43.52l71.68-189.44h10.24c7.68 0 12.8-5.12 12.8-12.8s-5.12-12.8-12.8-12.8h-20.48c-5.12 0-10.24 2.56-12.8 7.68l-81.92 215.04c-2.56 5.12 0 7.68 2.56 12.8 2.56 2.56 5.12 5.12 10.24 5.12h71.68c5.12 0 10.24-2.56 12.8-7.68l53.76-145.92-23.04-10.24zM476.16 366.08c-2.56 2.56-2.56 7.68-2.56 12.8l81.92 215.04c2.56 5.12 7.68 7.68 12.8 7.68H640c5.12 0 7.68-2.56 10.24-5.12 2.56-2.56 2.56-7.68 2.56-12.8l-81.92-215.04-94.72-2.56z m28.16 20.48h43.52l71.68 189.44h-43.52l-71.68-189.44zM512 166.4c-61.44 0-110.08 48.64-110.08 110.08s48.64 110.08 110.08 110.08 110.08-48.64 110.08-110.08-48.64-110.08-110.08-110.08z m0 194.56c-46.08 0-84.48-38.4-84.48-84.48s38.4-84.48 84.48-84.48 84.48 38.4 84.48 84.48-38.4 84.48-84.48 84.48z"  horiz-adv-x="1024" />

    
    <glyph glyph-name="__diamond" unicode="&#58985;" d="M512 199.68c-5.12 0-10.24 2.56-15.36 5.12l-199.68 199.68c-5.12 5.12-5.12 12.8 0 17.92l97.28 122.88c2.56 2.56 5.12 5.12 10.24 5.12h217.6c5.12 0 7.68-2.56 10.24-5.12l97.28-122.88c5.12-5.12 2.56-12.8 0-17.92L527.36 204.8c-5.12-5.12-10.24-5.12-15.36-5.12z m-186.88 215.04l186.88-186.88 186.88 186.88-84.48 107.52h-204.8l-84.48-107.52zM307.2 424.96h409.6v-25.6H307.2zM491.52 529.92L458.24 409.6l53.76-161.28 53.76 161.28-33.28 120.32 25.6 7.68 35.84-125.44v-7.68l-58.88-179.2c-2.56-7.68-10.24-15.36-20.48-15.36s-17.92 5.12-20.48 15.36l-58.88 179.2v7.68l35.84 125.44 20.48-7.68z"  horiz-adv-x="1024" />

    
    <glyph glyph-name="__medal1" unicode="&#58986;" d="M573.44 307.2h-5.12l-56.32 23.04-56.32-23.04c-5.12-2.56-12.8 0-15.36 7.68l-25.6 53.76-53.76 25.6c-5.12 2.56-10.24 10.24-7.68 15.36l20.48 56.32-20.48 56.32c-2.56 5.12 0 12.8 7.68 15.36l53.76 25.6 25.6 53.76c2.56 5.12 10.24 10.24 15.36 7.68l56.32-20.48 56.32 20.48c5.12 2.56 12.8 0 15.36-7.68l25.6-53.76 53.76-25.6c5.12-2.56 10.24-10.24 7.68-15.36l-20.48-56.32 20.48-56.32c2.56-5.12 0-12.8-7.68-15.36l-53.76-25.6-25.6-53.76c-2.56-5.12-7.68-7.68-10.24-7.68zM512 355.84h5.12l48.64-17.92 23.04 46.08c0 2.56 2.56 5.12 5.12 5.12l48.64 23.04-17.92 48.64v7.68l17.92 48.64-48.64 23.04c-2.56 0-5.12 2.56-5.12 5.12l-23.04 48.64-48.64-17.92h-7.68l-48.64 17.92-25.6-46.08c0-2.56-2.56-5.12-5.12-5.12l-48.64-23.04 17.92-48.64v-7.68l-17.92-48.64 48.64-23.04c2.56 0 5.12-2.56 5.12-5.12l23.04-48.64 48.64 17.92h5.12zM435.2 368.64l-56.32-153.6 48.64 7.68c5.12 0 10.24 0 12.8-5.12l30.72-38.4 56.32 153.6 23.04-7.68-64-174.08c-2.56-5.12-5.12-7.68-10.24-7.68h-2.56c-5.12 0-7.68 2.56-10.24 5.12l-38.4 48.64-61.44-10.24c-5.12 0-10.24 0-12.8 5.12-2.56 2.56-2.56 7.68-2.56 12.8l64 174.08 23.04-10.24zM611.84 376.32l66.56-174.08c2.56-5.12 0-10.24-2.56-12.8-2.56-2.56-7.68-5.12-12.8-5.12l-61.44 10.24-38.4-48.64c-2.56-2.56-5.12-5.12-10.24-5.12h-2.56c-5.12 0-7.68 2.56-10.24 7.68L499.2 256l23.04 10.24 30.72-84.48 30.72 38.4c2.56 2.56 7.68 5.12 12.8 5.12l48.64-7.68-56.32 153.6 23.04 5.12z"  horiz-adv-x="1024" />

    
    <glyph glyph-name="__crown" unicode="&#58987;" d="M647.68 220.16H378.88c-20.48 0-38.4 15.36-38.4 35.84l-17.92 161.28c0 5.12 2.56 10.24 7.68 12.8 5.12 2.56 12.8 0 15.36-5.12 23.04-33.28 56.32-71.68 69.12-71.68 15.36 0 56.32 74.24 84.48 153.6 2.56 10.24 20.48 10.24 23.04 0 28.16-81.92 69.12-153.6 84.48-153.6 12.8 0 46.08 35.84 71.68 71.68 2.56 5.12 10.24 7.68 15.36 5.12 5.12-2.56 7.68-7.68 7.68-12.8l-15.36-161.28c-2.56-20.48-20.48-35.84-38.4-35.84z m-296.96 153.6l12.8-115.2c0-7.68 7.68-12.8 12.8-12.8h268.8c7.68 0 12.8 5.12 12.8 12.8l12.8 115.2c-17.92-23.04-43.52-46.08-64-46.08-35.84 2.56-76.8 87.04-97.28 140.8-20.48-53.76-61.44-135.68-94.72-140.8-17.92 0-43.52 23.04-64 46.08zM332.8 417.28m-25.6 0a25.6 25.6 0 1 1 51.2 0 25.6 25.6 0 1 1-51.2 0ZM512 522.24m-25.6 0a25.6 25.6 0 1 1 51.2 0 25.6 25.6 0 1 1-51.2 0ZM691.2 417.28m-25.6 0a25.6 25.6 0 1 1 51.2 0 25.6 25.6 0 1 1-51.2 0ZM512 304.64m-25.6 0a25.6 25.6 0 1 1 51.2 0 25.6 25.6 0 1 1-51.2 0Z"  horiz-adv-x="1024" />

    
    <glyph glyph-name="__van" unicode="&#58988;" d="M299.52 268.8c-20.48 0-38.4 17.92-38.4 38.4v48.64c0 5.12 0 7.68 2.56 12.8l30.72 76.8c12.8 33.28 46.08 56.32 84.48 56.32h51.2l-12.8-25.6h-38.4c-25.6 0-48.64-15.36-58.88-40.96l-30.72-76.8v-48.64c0-7.68 5.12-12.8 12.8-12.8v-28.16zM350.72 217.6c-35.84 0-64 28.16-64 64s28.16 64 64 64 64-28.16 64-64-28.16-64-64-64z m0 102.4c-20.48 0-38.4-17.92-38.4-38.4s17.92-38.4 38.4-38.4 38.4 17.92 38.4 38.4-17.92 38.4-38.4 38.4zM683.52 294.4h25.6c7.68 0 12.8 5.12 12.8 12.8v179.2c0 20.48-17.92 38.4-38.4 38.4h-204.8c-20.48 0-38.4-17.92-38.4-38.4v-192h140.8v-25.6h-153.6c-7.68 0-12.8 5.12-12.8 12.8v204.8c0 35.84 28.16 64 64 64h204.8c35.84 0 64-28.16 64-64v-179.2c0-20.48-17.92-38.4-38.4-38.4h-25.6v25.6zM632.32 217.6c-35.84 0-64 28.16-64 64s28.16 64 64 64 64-28.16 64-64-28.16-64-64-64z m0 102.4c-20.48 0-38.4-17.92-38.4-38.4s17.92-38.4 38.4-38.4 38.4 17.92 38.4 38.4-17.92 38.4-38.4 38.4zM401.92 294.4h25.6c7.68 0 12.8-5.12 12.8-12.8s-5.12-12.8-12.8-12.8h-25.6v25.6z"  horiz-adv-x="1024" />

    
    <glyph glyph-name="__cart" unicode="&#58989;" d="M622.08 245.76h-181.76c-28.16 0-53.76 17.92-61.44 46.08l-51.2 176.64-12.8 43.52-25.6 7.68c-7.68 2.56-10.24 10.24-7.68 15.36 2.56 7.68 10.24 10.24 15.36 7.68l30.72-10.24c5.12 0 7.68-5.12 7.68-7.68l12.8-40.96 332.8-23.04c10.24 0 23.04-7.68 28.16-15.36 7.68-10.24 7.68-20.48 5.12-33.28l-30.72-120.32c-7.68-28.16-33.28-46.08-61.44-46.08zM358.4 458.24l46.08-158.72c5.12-15.36 20.48-28.16 35.84-28.16h181.76c17.92 0 33.28 12.8 35.84 28.16l30.72 120.32c0 2.56 0 7.68-2.56 10.24-2.56 2.56-5.12 5.12-10.24 5.12L358.4 458.24zM432.64 168.96c-28.16 0-51.2 23.04-51.2 51.2s23.04 51.2 51.2 51.2 51.2-23.04 51.2-51.2-23.04-51.2-51.2-51.2z m0 76.8c-15.36 0-25.6-10.24-25.6-25.6s10.24-25.6 25.6-25.6 25.6 10.24 25.6 25.6-12.8 25.6-25.6 25.6zM619.52 168.96c-28.16 0-51.2 23.04-51.2 51.2s23.04 51.2 51.2 51.2 51.2-23.04 51.2-51.2-23.04-51.2-51.2-51.2z m0 76.8c-15.36 0-25.6-10.24-25.6-25.6s10.24-25.6 25.6-25.6 25.6 10.24 25.6 25.6-10.24 25.6-25.6 25.6z"  horiz-adv-x="1024" />

    
    <glyph glyph-name="__VIP" unicode="&#58990;" d="M522.24 322.56h-17.92c-15.36 0-28.16 10.24-33.28 23.04l-5.12 17.92c-2.56 5.12 0 12.8 2.56 17.92s10.24 7.68 15.36 7.68h58.88c5.12 0 12.8-2.56 15.36-7.68s5.12-12.8 2.56-17.92l-5.12-17.92c-7.68-15.36-20.48-23.04-33.28-23.04z m-30.72 40.96l2.56-10.24c0-2.56 5.12-5.12 7.68-5.12h17.92c2.56 0 7.68 2.56 7.68 5.12l2.56 10.24h-38.4zM535.04 337.92l25.6-112.64c0-5.12 0-10.24-5.12-12.8l-35.84-23.04c-2.56-2.56-5.12-2.56-7.68-2.56s-5.12 0-7.68 2.56l-35.84 23.04c-5.12 2.56-7.68 7.68-5.12 12.8l25.6 112.64h46.08z m-43.52-112.64l20.48-15.36 20.48 15.36-20.48 92.16-20.48-92.16zM512 368.64c-56.32 0-102.4 51.2-102.4 115.2s46.08 115.2 102.4 115.2 102.4-51.2 102.4-115.2-46.08-115.2-102.4-115.2z m0 204.8c-43.52 0-76.8-40.96-76.8-89.6s33.28-89.6 76.8-89.6 76.8 40.96 76.8 89.6-33.28 89.6-76.8 89.6zM665.6 194.56c-7.68 0-12.8 5.12-12.8 12.8v87.04c0 48.64-38.4 87.04-87.04 87.04h-10.24c-7.68 0-12.8 5.12-12.8 12.8s5.12 12.8 12.8 12.8h10.24c61.44 0 112.64-51.2 112.64-112.64v-87.04c0-7.68-5.12-12.8-12.8-12.8zM358.4 194.56c-7.68 0-12.8 5.12-12.8 12.8v87.04c0 61.44 51.2 112.64 112.64 112.64h10.24c7.68 0 12.8-5.12 12.8-12.8s-5.12-12.8-12.8-12.8h-10.24c-48.64 0-87.04-38.4-87.04-87.04v-87.04c0-7.68-5.12-12.8-12.8-12.8z"  horiz-adv-x="1024" />

    
    <glyph glyph-name="__basket" unicode="&#58991;" d="M696.32 358.4H327.68c-17.92 0-33.28 15.36-33.28 33.28v35.84c0 17.92 15.36 33.28 33.28 33.28h368.64c17.92 0 33.28-15.36 33.28-33.28v-35.84c0-17.92-15.36-33.28-33.28-33.28z m-368.64 76.8c-5.12 0-7.68-2.56-7.68-7.68v-35.84c0-5.12 2.56-7.68 7.68-7.68h368.64c5.12 0 7.68 2.56 7.68 7.68v35.84c0 5.12-2.56 7.68-7.68 7.68H327.68zM675.84 378.88c2.56-2.56 2.56-7.68 2.56-10.24l-15.36-110.08c-5.12-30.72-30.72-53.76-64-53.76h-174.08c-30.72 0-58.88 23.04-64 53.76l-15.36 110.08c0 2.56 0 7.68 2.56 10.24h327.68z m-302.08-20.48l12.8-94.72c2.56-17.92 17.92-33.28 38.4-33.28h174.08c17.92 0 35.84 15.36 38.4 33.28l12.8 94.72H373.76zM355.84 455.68l71.68 102.4c5.12 5.12 12.8 7.68 17.92 2.56 5.12-5.12 7.68-12.8 2.56-17.92l-71.68-102.4-20.48 15.36zM647.68 440.32l-71.68 102.4c-5.12 5.12-2.56 12.8 2.56 17.92 5.12 5.12 12.8 2.56 17.92-2.56l71.68-102.4-20.48-15.36z"  horiz-adv-x="1024" />

    
    </font>
</defs>
</svg>
